<svg width="141" height="39" viewBox="0 0 141 39" fill="none" xmlns="http://www.w3.org/2000/svg">
<path d="M21.9102 20.5883H14.9375L18.1914 12.8649L21.9102 20.5883Z" fill="white"/>
<path fill-rule="evenodd" clip-rule="evenodd" d="M36.2383 6.80037L33.3125 29.9977L18.1367 38.3466L3.20703 30.1065L0.5 6.90915L18.1367 0.654297L36.2383 6.80037ZM7.17188 29.3722L11.2734 29.2907L13.4883 23.7973H23.3047L25.7109 29.3451L29.6211 29.4266L18.1641 5.05989L7.17188 29.3722Z" fill="white"/>
<path d="M79.4414 22.0024C79.4414 25.293 81.082 26.9519 84.3906 26.9519C87.6719 26.9519 89.3398 25.293 89.3398 22.0024V11.4779H91.5547V22.0024C91.5547 26.4896 89.1758 28.7468 84.3906 28.7468C79.6055 28.7468 77.2266 26.4896 77.2266 22.0024V11.4779H79.4414V22.0024Z" fill="white"/>
<path d="M68.8594 11.3419C70.582 11.3419 72.1953 11.5867 73.6719 12.049V13.9527C72.1953 13.3816 70.6641 13.1096 69.1055 13.1096C64.4023 13.1096 62.0508 15.3396 62.0508 19.7452C62.0508 24.5043 64.375 26.8703 68.9961 26.8703C69.7344 26.8703 70.5547 26.7615 71.457 26.5712V20.833H73.6719V27.9309C72.2773 28.4476 70.7734 28.7196 69.1875 28.7196C62.9531 28.7196 59.8359 25.7553 59.8359 19.7996C59.8359 14.1702 62.8438 11.3419 68.8594 11.3419Z" fill="white"/>
<path d="M54.4219 25.2658V11.4779H56.5273V28.6108H54.3125L43.7852 14.6869V28.6108H41.6797V11.4779H43.8945L54.4219 25.2658Z" fill="white"/>
<path d="M97.7344 26.8159H106.758V28.6108H95.5195V11.4779H97.7344V26.8159Z" fill="white"/>
<path d="M124.75 28.6108H122.289L120.074 23.2262H114.387L114.988 21.4313H119.336L116.109 13.6807L109.957 28.6108H107.633L116.191 9.22073L124.75 28.6108Z" fill="white"/>
<path d="M134.484 11.4779C137.766 11.4779 139.406 12.8377 139.406 15.5844C139.406 17.8144 137.793 19.4733 134.594 20.5339L140.5 28.6108H137.574L132.105 20.9146V19.4733C135.387 18.9565 137.055 17.7056 137.055 15.6931C137.055 14.1158 136.152 13.3272 134.32 13.3272H129.398V28.6108H127.129V11.4779H134.484Z" fill="white"/>
</svg>
