<svg width="141" height="18" viewBox="0 0 141 18" fill="none" xmlns="http://www.w3.org/2000/svg">
<path d="M34.7619 4.23685H39.8646V17.0372H43.122V4.23685H48.2247V1.17869H34.7632V4.23685H34.7619Z" fill="white"/>
<path d="M29.0085 12.2802L22.1684 1.17869H18.4777V17.0386H21.6258V5.93567L28.4658 17.0372H32.1565V1.17869H29.0085V12.2802Z" fill="white"/>
<path d="M61.2501 7.49899H54.0847V1.17869H50.8273V17.0386H54.0847V10.5586H61.2501V17.0386H64.5074V1.17869H61.2501V7.50042V7.49899Z" fill="white"/>
<path d="M6.55819 1.17869L0.5 17.0372H3.88723L5.12566 13.7066H11.4627L12.7011 17.0372H16.0884L10.0315 1.17869H6.55819ZM6.22193 10.7626L8.29555 5.18968L10.3692 10.7626H6.22193Z" fill="white"/>
<path d="M91.4959 0.90625C87.1095 0.90625 84.0052 4.30532 84.0052 9.13077C84.0052 13.9562 87.1095 17.3096 91.4959 17.3096C95.8824 17.3096 98.9429 13.9106 98.9429 9.13077C98.9429 4.35096 95.8591 0.90625 91.4959 0.90625ZM91.4959 14.1374C88.9343 14.1374 87.3705 12.2346 87.3705 9.13077C87.3705 6.02696 88.9343 4.07852 91.4959 4.07852C94.0575 4.07852 95.5775 5.98132 95.5775 9.13077C95.5775 12.2802 94.0356 14.1374 91.4959 14.1374Z" fill="white"/>
<path d="M137.025 11.7139C136.461 13.2544 135.332 14.1388 133.79 14.1388C131.228 14.1388 129.664 12.236 129.664 9.1322C129.664 6.02839 131.228 4.07995 133.79 4.07995C135.332 4.07995 136.461 4.96288 137.025 6.5048H140.478C139.632 3.10573 137.091 0.909103 133.791 0.909103C129.405 0.909103 126.3 4.30817 126.3 9.13362C126.3 13.9591 129.405 17.3125 133.791 17.3125C137.113 17.3125 139.653 15.0916 140.5 11.7168H137.027L137.025 11.7139Z" fill="white"/>
<path d="M116.269 1.17869L122.327 17.0386H125.648L119.592 1.17869H116.269Z" fill="white"/>
<path d="M101.983 1.17869V17.0386H105.24V11.2832H109.409C112.862 11.2832 114.967 9.38039 114.967 6.23094C114.967 3.08148 112.861 1.17869 109.409 1.17869H101.983ZM109.256 8.22502H105.239V4.23685H109.256C110.864 4.23685 111.71 4.91724 111.71 6.23094C111.71 7.54463 110.864 8.22502 109.256 8.22502Z" fill="white"/>
<path d="M81.5078 6.00414C81.5078 3.01302 79.4014 1.17869 75.9499 1.17869H68.5248V17.0386H71.7822V10.831H75.4086L78.666 17.0386H82.2706L78.6646 10.3575C80.4744 9.63143 81.5106 8.10235 81.5106 6.00414H81.5078ZM71.7808 4.23685H75.7982C77.4043 4.23685 78.2518 4.84877 78.2518 6.00414C78.2518 7.15951 77.4043 7.77143 75.7982 7.77143H71.7822V4.23685H71.7808Z" fill="white"/>
</svg>
