<svg width="86" height="51" viewBox="0 0 86 51" fill="none" xmlns="http://www.w3.org/2000/svg">
<path d="M24.5774 18.3351C24.5774 19.3704 24.6895 20.2099 24.8855 20.8255C25.1096 21.4411 25.3897 22.1127 25.7819 22.8402C25.9219 23.0641 25.9779 23.288 25.9779 23.4838C25.9779 23.7637 25.8099 24.0435 25.4457 24.3233L23.6811 25.4986C23.429 25.6665 23.1769 25.7504 22.9528 25.7504C22.6727 25.7504 22.3926 25.6105 22.1125 25.3587C21.7204 24.9389 21.3842 24.4912 21.1041 24.0435C20.824 23.5678 20.5439 23.0361 20.2358 22.3925C18.051 24.9669 15.306 26.2541 12.0008 26.2541C9.64794 26.2541 7.77126 25.5825 6.39875 24.2394C5.02625 22.8962 4.32599 21.1053 4.32599 18.8667C4.32599 16.4882 5.1663 14.5574 6.87493 13.1023C8.58355 11.6472 10.8524 10.9197 13.7374 10.9197C14.6898 10.9197 15.6702 11.0036 16.7065 11.1436C17.7429 11.2835 18.8073 11.5073 19.9277 11.7592V9.71646C19.9277 7.58979 19.4795 6.10672 18.6112 5.23926C17.7149 4.3718 16.2023 3.95206 14.0456 3.95206C13.0652 3.95206 12.0568 4.06399 11.0204 4.31584C9.98407 4.56768 8.9757 4.87549 7.99534 5.26724C7.54717 5.46312 7.21105 5.57505 7.01498 5.63101C6.81891 5.68698 6.67885 5.71496 6.56681 5.71496C6.17467 5.71496 5.9786 5.43514 5.9786 4.8475V3.47636C5.9786 3.02864 6.03462 2.69285 6.17467 2.49698C6.31472 2.3011 6.56681 2.10522 6.95896 1.90934C7.93932 1.40566 9.11575 0.985922 10.4883 0.650132C11.8608 0.28636 13.3173 0.118465 14.8579 0.118465C18.1911 0.118465 20.628 0.873992 22.1965 2.38505C23.7371 3.8961 24.5214 6.19066 24.5214 9.26874V18.3351H24.5774ZM13.2052 22.5884C14.1296 22.5884 15.0819 22.4205 16.0903 22.0847C17.0987 21.7489 17.995 21.1333 18.7513 20.2938C19.1994 19.7622 19.5356 19.1745 19.7036 18.503C19.8717 17.8314 19.9837 17.0199 19.9837 16.0685V14.8932C19.1714 14.6973 18.3031 14.5294 17.4068 14.4175C16.5105 14.3056 15.6421 14.2496 14.7738 14.2496C12.8971 14.2496 11.5246 14.6134 10.6003 15.3689C9.67595 16.1244 9.22779 17.1878 9.22779 18.5869C9.22779 19.9021 9.56391 20.8815 10.2642 21.553C10.9364 22.2526 11.9168 22.5884 13.2052 22.5884ZM35.6975 25.6105C35.1933 25.6105 34.8572 25.5266 34.6331 25.3307C34.409 25.1628 34.213 24.771 34.0449 24.2394L27.4625 2.60891C27.2944 2.04926 27.2104 1.68548 27.2104 1.48961C27.2104 1.04189 27.4345 0.790044 27.8826 0.790044H30.6276C31.1598 0.790044 31.524 0.873992 31.72 1.06987C31.9441 1.23776 32.1122 1.62952 32.2802 2.16119L36.986 20.6856L41.3556 2.16119C41.4956 1.60154 41.6637 1.23776 41.8878 1.06987C42.1119 0.901974 42.504 0.790044 43.0082 0.790044H45.249C45.7812 0.790044 46.1453 0.873992 46.3694 1.06987C46.5935 1.23776 46.7896 1.62952 46.9016 2.16119L51.3272 20.9094L56.173 2.16119C56.3411 1.60154 56.5371 1.23776 56.7332 1.06987C56.9573 0.901974 57.3214 0.790044 57.8256 0.790044H60.4306C60.8787 0.790044 61.1308 1.0139 61.1308 1.48961C61.1308 1.62952 61.1028 1.76943 61.0748 1.93733C61.0468 2.10522 60.9908 2.32908 60.8787 2.63689L54.1283 24.2673C53.9602 24.827 53.7641 25.1908 53.54 25.3587C53.316 25.5266 52.9518 25.6385 52.4757 25.6385H50.0668C49.5346 25.6385 49.1704 25.5545 48.9464 25.3587C48.7223 25.1628 48.5262 24.799 48.4142 24.2394L44.0726 6.19066L39.759 24.2114C39.6189 24.771 39.4509 25.1348 39.2268 25.3307C39.0027 25.5266 38.6106 25.6105 38.1064 25.6105H35.6975ZM71.6907 26.366C70.2342 26.366 68.7776 26.1981 67.3771 25.8623C65.9766 25.5266 64.8842 25.1628 64.1559 24.743C63.7078 24.4912 63.3997 24.2114 63.2876 23.9595C63.1756 23.7077 63.1196 23.4279 63.1196 23.176V21.7489C63.1196 21.1613 63.3436 20.8815 63.7638 20.8815C63.9319 20.8815 64.0999 20.9094 64.268 20.9654C64.436 21.0214 64.6881 21.1333 64.9682 21.2452C65.9206 21.665 66.957 22.0008 68.0494 22.2246C69.1698 22.4485 70.2622 22.5604 71.3826 22.5604C73.1472 22.5604 74.5197 22.2526 75.4721 21.637C76.4244 21.0214 76.9286 20.1259 76.9286 18.9787C76.9286 18.1951 76.6765 17.5515 76.1723 17.0199C75.6682 16.4882 74.7158 16.0125 73.3433 15.5648L69.2818 14.3056C67.2371 13.662 65.7245 12.7106 64.8002 11.4514C63.8758 10.2201 63.3997 8.849 63.3997 7.39391C63.3997 6.21865 63.6518 5.18329 64.1559 4.28785C64.6601 3.39242 65.3324 2.60891 66.1727 1.99329C67.013 1.34969 67.9653 0.873992 69.0857 0.538202C70.2062 0.202412 71.3826 0.0625 72.615 0.0625C73.2313 0.0625 73.8755 0.0904825 74.4917 0.17443C75.136 0.258377 75.7242 0.370307 76.3124 0.482237C76.8726 0.62215 77.4048 0.762062 77.909 0.929957C78.4132 1.09785 78.8053 1.26575 79.0854 1.43364C79.4775 1.6575 79.7576 1.88136 79.9257 2.1332C80.0938 2.35706 80.1778 2.66487 80.1778 3.05663V4.3718C80.1778 4.95943 79.9537 5.26724 79.5336 5.26724C79.3095 5.26724 78.9454 5.15531 78.4692 4.93145C76.8726 4.20391 75.0799 3.84013 73.0912 3.84013C71.4946 3.84013 70.2342 4.09198 69.3659 4.62364C68.4975 5.15531 68.0494 5.9668 68.0494 7.11409C68.0494 7.89759 68.3295 8.56917 68.8897 9.10084C69.4499 9.63251 70.4863 10.1642 71.9708 10.6399L75.9483 11.8991C77.965 12.5427 79.4215 13.4381 80.2899 14.5854C81.1582 15.7327 81.5783 17.0479 81.5783 18.503C81.5783 19.7062 81.3262 20.7975 80.8501 21.7489C80.3459 22.7003 79.6736 23.5398 78.8053 24.2114C77.937 24.9109 76.9006 25.4146 75.6962 25.7784C74.4357 26.1702 73.1192 26.366 71.6907 26.366Z" fill="white"/>
<path fill-rule="evenodd" clip-rule="evenodd" d="M76.9846 39.9655C67.7693 46.7653 54.3803 50.375 42.8681 50.375C26.7342 50.375 12.1969 44.4147 1.21685 34.5089C0.348533 33.7254 1.13282 32.6621 2.1692 33.2777C14.0456 40.1614 28.6949 44.3308 43.8485 44.3308C54.0722 44.3308 65.3044 42.2041 75.6401 37.8388C77.1807 37.1393 78.4972 38.8462 76.9846 39.9655Z" fill="white"/>
<path fill-rule="evenodd" clip-rule="evenodd" d="M80.822 35.6003C79.6456 34.0892 73.0352 34.8727 70.0381 35.2365C69.1418 35.3484 69.0017 34.5649 69.814 33.9773C75.0799 30.2836 83.7351 31.3469 84.7435 32.5781C85.7519 33.8374 84.4634 42.4839 79.5336 46.6253C78.7773 47.2689 78.049 46.9332 78.3851 46.0937C79.5056 43.3234 81.9985 37.0833 80.822 35.6003Z" fill="white"/>
</svg>
