<svg width="120" height="36" viewBox="0 0 120 36" fill="none" xmlns="http://www.w3.org/2000/svg">
<path d="M84.8194 28.8167C82.0917 28.641 80.4984 27.085 80.0814 24.1655C79.9729 23.3875 79.9729 23.3708 79.9562 18.3264V13.4494H82.367V18.1675C82.3836 22.4171 82.392 22.9191 82.4337 23.2202C82.6005 24.4332 82.9258 25.253 83.4847 25.8386C83.9352 26.3071 84.4523 26.5831 85.1781 26.7253C85.5201 26.7923 86.4877 26.7923 86.8047 26.7253C87.5387 26.5664 88.1226 26.2401 88.6481 25.7215C89.2404 25.1275 89.6742 24.291 89.891 23.3373L89.9661 23.0194V18.2595L89.9828 13.4996H92.4519V28.4653H90.0078V27.2775C90.0078 26.4744 89.9995 26.0896 89.9828 26.0979C89.9661 26.0979 89.9077 26.1983 89.841 26.3154C89.4239 27.085 88.7149 27.7877 87.9474 28.2144C87.0299 28.7247 86.104 28.9003 84.8444 28.8251L84.8194 28.8167ZM112.538 28.8C111.571 28.7247 110.561 28.3984 109.727 27.8798C107.976 26.7923 106.941 25.0104 106.641 22.5426C106.532 21.6893 106.524 20.5433 106.608 19.8239C106.799 18.2093 107.433 16.6199 108.343 15.4906C108.576 15.1978 109.102 14.6707 109.385 14.4449C110.169 13.8175 111.079 13.3825 112.055 13.165C112.622 13.0395 113.614 12.9809 114.215 13.0395C115.725 13.1817 117.11 13.8928 118.052 15.0137C119.011 16.1514 119.537 17.7492 119.604 19.7067C119.612 20.0163 119.62 20.5516 119.604 20.903L119.587 21.5388H114.298L109.01 21.5555V21.7897C109.01 22.5092 109.185 23.329 109.485 24.0317C109.744 24.634 110.194 25.2948 110.561 25.6127C111.312 26.2652 112.238 26.6584 113.239 26.7504C113.614 26.7839 114.565 26.7504 114.991 26.6835C116.209 26.4995 117.36 26.0143 118.294 25.3199C118.402 25.2363 118.511 25.161 118.528 25.1526C118.553 25.1359 118.561 25.3534 118.561 26.2569V27.3862L118.311 27.5451C117.251 28.1976 116.05 28.6159 114.766 28.7749C114.382 28.8251 112.98 28.8418 112.522 28.8083L112.538 28.8ZM117.143 19.3052C117.143 18.1006 116.634 16.7537 115.917 16.0678C115.408 15.5742 114.782 15.2731 114.048 15.1559C113.698 15.1057 112.964 15.1225 112.597 15.1978C111.821 15.3567 111.179 15.6997 110.62 16.2518C110.028 16.8374 109.585 17.5485 109.31 18.3515C109.21 18.6443 109.093 19.1212 109.06 19.3888L109.043 19.5143H117.143V19.3052ZM45.3889 28.4235C45.3889 28.4235 47.1906 23.6719 49.3845 17.9082L53.3634 7.42628H55.9159L56.0243 7.70234C56.3497 8.53889 63.9905 28.4402 63.9905 28.4486C63.9905 28.4486 63.3816 28.457 62.6308 28.457H61.2712L59.069 22.5677H50.1936L50.1519 22.6681C50.1269 22.7267 49.6597 24.0484 49.1092 25.6127L48.0999 28.457H46.7402C45.6641 28.457 45.3805 28.457 45.3889 28.4235ZM58.2599 20.3341C58.2599 20.3341 57.5175 18.3097 56.6082 15.8586C54.9149 11.2577 54.8148 10.9816 54.6813 10.2454C54.6146 9.90245 54.5896 9.88572 54.5479 10.2036C54.5229 10.4295 54.4061 10.9314 54.3143 11.2158C54.2726 11.358 53.5052 13.4578 52.621 15.8837C51.7284 18.3097 51.0027 20.309 51.0027 20.3258C51.0027 20.3425 52.6293 20.3509 54.623 20.3509C56.6166 20.3509 58.2432 20.3509 58.2432 20.3425L58.2599 20.3341ZM64.8163 28.0805V27.6957L73.6584 15.5157L65.6505 15.4822V14.4616L65.6338 13.441H77.2119V14.127L72.7909 20.2505C70.3635 23.6218 68.3698 26.3824 68.3698 26.3907C68.3698 26.3991 70.3384 26.4074 72.7408 26.4074H77.1118V28.457H64.8163V28.0722V28.0805ZM97.2483 28.4402C97.2483 28.4402 97.2316 25.0522 97.2316 20.9365V13.4494H99.6507V14.997C99.6507 15.8503 99.659 16.5446 99.6757 16.5446C99.6924 16.5446 99.7507 16.4024 99.8091 16.2351C100.084 15.4571 100.552 14.7293 101.16 14.1521C101.711 13.6334 102.328 13.3155 103.071 13.1984C103.279 13.165 103.454 13.1566 103.863 13.1733C104.38 13.1901 104.656 13.2235 104.973 13.3323L105.073 13.3657V15.8837L104.789 15.7415C104.289 15.4906 103.788 15.3902 103.187 15.4236C102.795 15.4404 102.545 15.4906 102.228 15.6077C101.586 15.8503 101.069 16.2769 100.71 16.8541C100.185 17.6907 99.8092 18.7782 99.7007 19.7653C99.684 19.941 99.6673 21.3966 99.6673 24.2575V28.4821H98.4745C97.8239 28.4821 97.2733 28.4821 97.265 28.4653L97.2483 28.4402Z" fill="white"/>
<path fill-rule="evenodd" clip-rule="evenodd" d="M37.2558 32.3218L27.2877 2.3401C27.1125 1.82145 26.7789 1.37808 26.3284 1.06856C25.878 0.759036 25.3441 0.608458 24.8019 0.633554H12.9903C12.4648 0.633554 11.9559 0.792498 11.5305 1.10202C11.1051 1.40317 10.7881 1.83818 10.6213 2.33174L0.527996 32.3218C0.394531 32.7066 0.361165 33.1249 0.427897 33.5264C0.49463 33.928 0.653119 34.3128 0.903366 34.639C1.14527 34.9653 1.47059 35.2246 1.83762 35.4003C2.20465 35.576 2.61338 35.6512 3.02212 35.6262H10.321C10.8382 35.6262 11.347 35.4588 11.7641 35.1493C12.1811 34.8482 12.4981 34.4132 12.665 33.928L14.1831 29.4776L21.6571 35.1493C22.0909 35.4672 22.6164 35.6345 23.1503 35.6262H34.8118C35.2122 35.6429 35.6126 35.5509 35.9796 35.3752C36.3383 35.1995 36.6553 34.9402 36.8972 34.6139C37.1391 34.2877 37.2976 33.9112 37.3559 33.5097C37.4227 33.1082 37.381 32.7066 37.2558 32.3218ZM23.2504 33.9782C23.0669 33.9782 22.8917 33.9196 22.7499 33.8025L8.66935 23.329L8.44413 23.1533H15.9182L16.1184 22.6263L18.6125 16.302L24.193 32.8739C24.2347 33.0161 24.243 33.1583 24.218 33.3006C24.193 33.4428 24.1262 33.5766 24.0261 33.6854C23.9344 33.7941 23.8093 33.8778 23.6758 33.928C23.5423 33.9782 23.3922 33.9865 23.2504 33.9698V33.9782ZM34.8868 33.9782H25.6194C25.8029 33.4428 25.8029 32.8656 25.6194 32.3302L15.5261 2.3401H24.7936C24.9687 2.3401 25.1439 2.39866 25.2857 2.49905C25.4275 2.59943 25.536 2.75001 25.5944 2.91732L35.6876 32.9074C35.721 33.0329 35.7293 33.1667 35.7043 33.2922C35.6793 33.4177 35.6292 33.5348 35.5542 33.6435C35.4791 33.7439 35.379 33.8276 35.2622 33.8945C35.1454 33.9531 35.0203 33.9865 34.8952 33.9865L34.8868 33.9782Z" fill="white"/>
</svg>
