<svg width="86" height="29" viewBox="0 0 86 29" fill="none" xmlns="http://www.w3.org/2000/svg">
<path d="M3.63046 28.4375C2.79703 28.4375 2.08266 28.1444 1.48735 27.5583C0.892036 26.9721 0.59896 26.2577 0.608118 25.4152C0.59896 24.5909 0.892036 23.8857 1.48735 23.2995C2.08266 22.7134 2.79703 22.4203 3.63046 22.4203C4.43642 22.4203 5.13705 22.7134 5.73236 23.2995C6.33683 23.8857 6.64365 24.5909 6.6528 25.4152C6.64365 25.9738 6.49711 26.4821 6.21319 26.9401C5.93843 27.398 5.57209 27.7643 5.11416 28.0391C4.66539 28.3047 4.17082 28.4375 3.63046 28.4375Z" fill="white"/>
<path d="M35.1281 0V28.1353H30.5946L17.3375 8.97086H17.1039V28.1353H12.0072V0H16.5682L29.8115 19.1781H30.0588V0H35.1281Z" fill="white"/>
<path d="M40.6816 28.1353V0H58.9806V4.2725H45.7784V11.9108H58.0326V16.1833H45.7784V23.8628H59.0905V28.1353H40.6816Z" fill="white"/>
<path d="M62.9439 4.2725V0H85.3917V4.2725H76.6956V28.1353H71.6401V4.2725H62.9439Z" fill="white"/>
</svg>
