<svg width="141" height="41" viewBox="0 0 141 41" fill="none" xmlns="http://www.w3.org/2000/svg">
<path d="M44.2897 19.894C44.2897 26.3319 48.3394 30.8208 53.9512 30.8208C59.563 30.8208 63.6127 26.3319 63.6127 19.894C63.6127 13.456 59.563 8.96719 53.9512 8.96719C48.3394 8.96719 44.2897 13.456 44.2897 19.894ZM59.9101 19.894C59.9101 24.501 57.4513 27.4837 53.9512 27.4837C50.4511 27.4837 47.9923 24.501 47.9923 19.894C47.9923 15.287 50.4511 12.3043 53.9512 12.3043C57.4513 12.3043 59.9101 15.287 59.9101 19.894Z" fill="white"/>
<path d="M74.0395 30.8208C78.2917 30.8208 80.7216 27.1588 80.7216 22.7586C80.7216 18.3583 78.2917 14.6964 74.0395 14.6964C72.0725 14.6964 70.6262 15.4937 69.6716 16.6455V14.9917H66.2004V35.8117H69.6716V28.8717C70.6262 30.0234 72.0725 30.8208 74.0395 30.8208ZM69.5848 22.3156C69.5848 19.3919 71.2047 17.7972 73.3453 17.7972C75.8619 17.7972 77.2214 19.8054 77.2214 22.7586C77.2214 25.7118 75.8619 27.7199 73.3453 27.7199C71.2047 27.7199 69.5848 26.0957 69.5848 23.2311V22.3156Z" fill="white"/>
<path d="M90.1155 30.8208C93.1528 30.8208 95.5537 29.1965 96.624 26.4796L93.6445 25.3278C93.1817 26.9226 91.8221 27.8085 90.1155 27.8085C87.8881 27.8085 86.3261 26.1843 86.0658 23.5264H96.7107V22.3451C96.7107 18.0925 94.3677 14.6964 89.9708 14.6964C85.574 14.6964 82.7392 18.2107 82.7392 22.7586C82.7392 27.5427 85.7765 30.8208 90.1155 30.8208ZM89.9419 17.6791C92.1403 17.6791 93.1817 19.1557 93.2106 20.8685H86.2393C86.76 18.7718 88.1485 17.6791 89.9419 17.6791Z" fill="white"/>
<path d="M99.3153 30.4959H102.787V21.4001C102.787 19.1852 104.378 18.0039 105.94 18.0039C107.849 18.0039 108.601 19.3919 108.601 21.3115V30.4959H112.072V20.2779C112.072 16.9408 110.163 14.6964 106.981 14.6964C105.014 14.6964 103.654 15.6119 102.787 16.6455V14.9917H99.3153V30.4959Z" fill="white"/>
<path d="M122.238 9.29204L114.37 30.4959H118.044L119.809 25.6527H128.776L130.569 30.4959H134.301L126.433 9.29204H122.238ZM124.263 13.4856L127.561 22.3451H121.024L124.263 13.4856Z" fill="white"/>
<path d="M140.26 9.35357H136.557V30.5575H140.26V9.35357Z" fill="white"/>
<path d="M35.807 17.0798C36.682 14.3986 36.3807 11.4614 34.9814 9.02256C32.877 5.28186 28.6464 3.35736 24.5148 4.26301C22.6767 2.14902 20.0359 0.946823 17.2674 0.96405C13.0441 0.954206 9.29694 3.7302 7.99766 7.83267C5.28458 8.39993 2.94273 10.1337 1.57233 12.591C-0.547745 16.3219 -0.064429 21.0248 2.76797 24.2241C1.89294 26.9053 2.19426 29.8425 3.59358 32.2814C5.69799 36.0221 9.92851 37.9466 14.0602 37.0409C15.897 39.1549 18.539 40.3571 21.3075 40.3387C25.5332 40.3497 29.2816 37.5713 30.5809 33.4651C33.294 32.8979 35.6358 31.1641 37.0062 28.7068C39.1239 24.9759 38.6394 20.2767 35.8082 17.0774V17.0798H35.807ZM21.3099 37.7657C19.6189 37.7682 17.981 37.164 16.6829 36.0578C16.7419 36.0258 16.8444 35.9679 16.9107 35.9261L24.5907 31.3979C24.9836 31.1702 25.2247 30.7433 25.2222 30.2818V19.2283L28.4681 21.1417C28.503 21.1589 28.5259 21.1934 28.5307 21.2328V30.3864C28.5259 34.4569 25.297 37.7571 21.3099 37.7657ZM5.78116 30.9943C4.93385 29.5005 4.62891 27.7495 4.91938 26.0501C4.97603 26.0846 5.07607 26.1474 5.14718 26.1892L12.8272 30.7174C13.2165 30.95 13.6986 30.95 14.0891 30.7174L23.465 25.19V29.0169C23.4674 29.0562 23.4493 29.0944 23.4192 29.119L15.656 33.6952C12.198 35.728 7.78191 34.5196 5.78236 30.9943H5.78116ZM3.75991 13.8793C4.6036 12.383 5.93543 11.2387 7.52157 10.6444C7.52157 10.712 7.51796 10.8314 7.51796 10.9151V19.9727C7.51555 20.4329 7.7566 20.8599 8.14832 21.0876L17.5242 26.6137L14.2783 28.5271C14.2458 28.5493 14.2048 28.553 14.1687 28.537L6.40428 23.9571C2.95358 21.9169 1.77 17.4096 3.7587 13.8806H3.75991V13.8793ZM30.4278 20.2151L21.052 14.6878L24.2978 12.7756C24.3303 12.7534 24.3713 12.7497 24.4075 12.7657L32.1719 17.3419C35.6286 19.3809 36.8134 23.8956 34.8162 27.4246C33.9713 28.9184 32.6407 30.0628 31.0558 30.6584V21.33C31.0594 20.8698 30.8195 20.444 30.429 20.2151H30.4278ZM33.658 15.2513C33.6013 15.2156 33.5013 15.1541 33.4302 15.1123L25.7502 10.5841C25.3609 10.3515 24.8787 10.3515 24.4882 10.5841L15.1124 16.1114V12.2846C15.11 12.2452 15.1281 12.2071 15.1582 12.1825L22.9214 7.60995C26.3793 5.57348 30.8003 6.78552 32.7938 10.317C33.6363 11.8084 33.9412 13.5545 33.6556 15.2513H33.658ZM13.3479 22.072L10.1009 20.1585C10.0659 20.1413 10.043 20.1069 10.0382 20.0675V10.9138C10.0406 6.83843 13.2792 3.53578 17.271 3.53825C18.9596 3.53825 20.594 4.14365 21.8921 5.24617C21.833 5.27816 21.7318 5.336 21.6643 5.37784L13.9843 9.90606C13.5913 10.1337 13.3503 10.5595 13.3527 11.0209L13.3479 22.072ZM15.1112 18.191L19.2875 15.7288L23.4638 18.1897V23.113L19.2875 25.5739L15.1112 23.113V18.191Z" fill="white"/>
</svg>
