<svg width="140" height="35" viewBox="0 0 140 35" fill="none" xmlns="http://www.w3.org/2000/svg">
<path fill-rule="evenodd" clip-rule="evenodd" d="M28.4125 10.1437C30.6689 10.1437 31.7591 11.8766 32.3246 14.1346C33.1157 17.2958 33.1511 19.668 32.3246 22.1137C31.5335 24.524 30.707 26.1046 28.4125 26.1046H16.6376V27.1222H24.5001V30.1338C24.5 32.3944 22.5807 33.5589 20.5879 34.1247C17.6164 34.9898 15.2076 34.8402 12.7254 34.1247C10.6565 33.5208 8.81311 32.2802 8.81303 30.1338V22.6443C8.81303 20.4978 10.5804 18.6534 12.7254 18.6534H20.55C23.1816 18.6533 25.476 16.3951 25.476 13.6856V10.1846L25.479 10.1817V10.1437H28.4125ZM21.0746 29.1543C20.2454 29.1543 19.6064 29.8318 19.6064 30.6588C19.6064 31.4858 20.2835 32.1633 21.0746 32.1633C21.8657 32.1632 22.5425 31.4858 22.5425 30.6588C22.5425 29.8318 21.901 29.1543 21.0746 29.1543Z" fill="white"/>
<path fill-rule="evenodd" clip-rule="evenodd" d="M49.6646 9.77093C51.6954 9.73286 53.2751 10.5626 54.3653 12.2547C55.344 13.7972 55.8685 15.7941 55.8685 18.2397C55.8685 20.4215 55.3411 22.2309 54.327 23.6591C53.1988 25.2777 51.6192 26.1048 49.5884 26.1429C48.085 26.181 46.5027 25.7292 44.8877 24.7117V33.9722L42.2914 33.0309V12.4805C42.7047 11.9528 43.2702 11.5012 43.9471 11.1258C45.4886 10.2227 47.4079 9.77103 49.6264 9.73293L49.6646 9.77093ZM49.2106 11.4659C48.2319 11.4278 47.291 11.5802 46.3883 11.9175C45.6353 12.1814 45.1461 12.4454 44.8851 12.7092V22.9081C46.4266 23.8875 47.8185 24.3392 49.0229 24.263C51.5812 24.1134 52.8591 22.0431 52.8591 18.0522C52.8591 13.8001 51.6547 11.5775 49.2106 11.4659Z" fill="white"/>
<path d="M61.2924 20.6884C61.2924 21.8555 61.6677 22.7587 62.4208 23.398C63.1739 24.0373 64.1499 24.3394 65.3543 24.3013C66.5586 24.2632 67.8364 23.8115 69.1902 22.9084V10.1492H71.7868V24.3393H71.8165C71.8164 27.235 71.5146 29.2662 70.9521 30.3976C70.3512 31.5266 69.2584 32.4299 67.6055 33.0692C66.2896 33.597 64.8214 33.8961 63.2799 33.9342L62.8666 32.2775C64.4461 32.0517 65.5365 31.8641 66.1781 31.6383C67.4559 31.2248 68.3232 30.5473 68.7744 29.6822C69.1496 28.9667 69.34 27.6118 69.34 25.5797V24.9025C67.5728 25.7295 65.6914 26.1076 63.7366 26.1076C62.4588 26.1076 61.3305 25.6941 60.3517 24.9025C59.2615 24.0374 58.6961 22.9082 58.6961 21.5534V10.6771L61.2924 9.77385V20.6884Z" fill="white"/>
<path fill-rule="evenodd" clip-rule="evenodd" d="M16.4881 1.79442C17.842 1.75633 19.2339 1.8707 20.6259 2.09649C22.7329 2.47191 24.5383 4.05253 24.5383 6.19898V13.6882C24.5383 15.8728 22.8063 17.6794 20.6259 17.6794H12.7634C10.0937 17.6794 7.8371 19.9753 7.83706 22.5733V26.2242H5.12923C2.83468 26.2242 1.51894 24.5674 0.953457 22.2333C0.200387 19.1102 0.23844 17.2657 0.953457 14.2541C1.59237 11.6181 3.58503 10.2633 5.87953 10.2632H16.6729V9.24596H8.81038V6.23431C8.81038 3.93824 9.41138 2.73305 12.7228 2.13182C13.8537 1.90332 15.1316 1.79176 16.4854 1.79176L16.4881 1.79442ZM12.2361 4.19927C11.4069 4.19927 10.7679 4.87675 10.7679 5.70377C10.7679 6.53079 11.445 7.20826 12.2361 7.20826C13.0272 7.2082 13.7041 6.53076 13.7041 5.70377C13.704 4.87679 13.0625 4.19933 12.2361 4.19927Z" fill="white"/>
<path fill-rule="evenodd" clip-rule="evenodd" d="M107.367 9.73293C109.547 9.73297 111.317 10.5245 112.671 12.1404C113.949 13.6095 114.59 15.4542 114.59 17.6741H114.585C114.585 20.0082 113.984 21.9641 112.779 23.5093C111.464 25.2395 109.658 26.1076 107.364 26.1076C105.069 26.1075 103.302 25.2422 101.986 23.5093C100.82 21.9668 100.219 20.0082 100.219 17.6741C100.219 15.4923 100.858 13.6476 102.1 12.1404C103.416 10.5599 105.186 9.73293 107.367 9.73293ZM107.364 11.5012C104.506 11.6509 103.076 13.7212 103.076 17.6358C103.076 19.4422 103.378 20.9495 103.979 22.152C104.732 23.6945 105.898 24.448 107.44 24.4099C110.262 24.448 111.727 22.1518 111.727 17.6358C111.727 15.9791 111.425 14.6244 110.787 13.5716C110.033 12.2549 108.905 11.5774 107.364 11.5012Z" fill="white"/>
<path d="M79.0402 10.111H81.9737V11.7677H79.0402V22.0051C79.0403 22.9844 79.304 23.6998 79.8314 24.0752C80.2827 24.4152 80.9977 24.603 81.9764 24.6411V25.996H81.986C81.693 26.0309 81.4034 26.0313 81.1472 26.0313C79.6791 26.0313 78.5154 25.6912 77.6862 24.9785C76.8597 24.263 76.4439 23.2836 76.4439 22.0431V11.7677H74.6385V10.111H76.4439V5.74468L79.0402 4.80341V10.111Z" fill="white"/>
<path d="M82.0146 25.996H81.986C81.9945 25.995 82.0031 25.9941 82.0117 25.9931L82.0146 25.996Z" fill="white"/>
<path d="M124.25 9.73559C124.851 9.73559 125.454 9.81188 126.017 9.92342C127.034 10.1492 127.86 10.6008 128.537 11.2401C129.252 11.9556 129.627 12.8207 129.627 13.8001V25.7702H129.551L129.557 25.7672H126.96V15.1168C126.96 13.9497 126.62 13.0463 125.908 12.3689C125.193 11.7297 124.252 11.3896 123.086 11.4276C121.844 11.4657 120.68 11.8413 119.549 12.633V25.7702H116.953V12.3336C118.456 11.2427 119.848 10.5273 121.091 10.1872C122.295 9.88526 123.347 9.73559 124.25 9.73559Z" fill="white"/>
<path d="M87.7672 11.8033C89.4229 10.5981 91.2663 9.99675 93.2211 9.99675C94.613 9.99676 95.7412 10.4484 96.5677 11.3897C97.4323 12.3309 97.8456 13.4601 97.8456 14.8529V25.7675H95.2519V15.68C95.2519 14.6625 95.0263 13.7591 94.5369 13.0464C93.9714 12.2194 93.2209 11.8033 92.2422 11.8033C91.0378 11.8033 89.5343 12.4426 87.7672 13.6859V25.7675H85.1709V1.63953L87.7672 0.8125V11.8033Z" fill="white"/>
<path d="M71.8248 24.3393H71.8165C71.8165 24.3384 71.8165 24.3375 71.8165 24.3366L71.8248 24.3393Z" fill="white"/>
<path d="M136.177 4.57759V4.91765H135.086V7.7768H134.635V4.91765H133.545V4.57759H136.177Z" fill="white"/>
<path d="M137.226 4.57759L138.053 7.32516L139.031 4.57759H139.597V7.7768H139.184V5.1788L138.281 7.7768H137.83L136.965 5.14347V7.7768H136.587V4.57759H137.226Z" fill="white"/>
</svg>
