<svg width="113" height="64" viewBox="0 0 113 64" fill="none" xmlns="http://www.w3.org/2000/svg">
<path d="M58.44 17.1276C60.5121 18.301 61.222 20.8997 60.0257 22.9321C58.8294 24.9645 56.1799 25.6608 54.1079 24.4875C52.0358 23.3141 51.3259 20.7153 52.5222 18.6829C53.7185 16.6505 56.368 15.9542 58.44 17.1276Z" fill="white"/>
<path fill-rule="evenodd" clip-rule="evenodd" d="M68.1403 0.65792C69.5146 1.43621 70.2954 2.84138 70.6502 4.48814C71.0052 6.13541 70.9641 8.13903 70.6012 10.3384C70.4587 11.2018 70.2651 12.1039 70.0221 13.037C70.9675 13.2971 71.8608 13.5838 72.6944 13.8944C74.8177 14.6858 76.6073 15.6528 77.8843 16.7779C79.1608 17.9027 80.0111 19.2685 80.0111 20.8251C80.0111 22.3816 79.1608 23.7474 77.8842 24.8722C76.6073 25.9974 74.8177 26.9643 72.6944 27.7557C71.8607 28.0664 70.9675 28.353 70.0221 28.6131C70.2651 29.5462 70.4587 30.4483 70.6012 31.3117C70.9641 33.5111 71.0052 35.5148 70.6502 37.162C70.2954 38.8088 69.5146 40.214 68.1403 40.9922C66.766 41.7705 65.1349 41.7311 63.5035 41.2092C61.8716 40.6871 60.1231 39.6504 58.3626 38.2424C57.6715 37.6896 56.9718 37.0742 56.2695 36.4012C55.5671 37.0742 54.8674 37.6896 54.1763 38.2424C52.4159 39.6504 50.6674 40.6871 49.0355 41.2092C47.4041 41.7311 45.773 41.7705 44.3987 40.9922C43.0243 40.2139 42.2436 38.8088 41.8888 37.162C41.5338 35.5148 41.5748 33.5111 41.9378 31.3117C42.0803 30.4483 42.2738 29.5462 42.5169 28.6131C41.5715 28.353 40.6782 28.0664 39.8446 27.7557C37.7212 26.9643 35.9317 25.9974 34.6547 24.8722C33.3782 23.7474 32.5279 22.3816 32.5279 20.8251C32.5279 19.2685 33.3782 17.9027 34.6547 16.7779C35.9316 15.6527 37.7212 14.6858 39.8446 13.8944C40.6782 13.5837 41.5715 13.2971 42.5169 13.037C42.2738 12.1039 42.0802 11.2018 41.9378 10.3384C41.5748 8.13902 41.5337 6.13539 41.8887 4.48812C42.2436 2.84136 43.0243 1.4362 44.3987 0.657916C45.773 -0.120364 47.4041 -0.0809763 49.0355 0.440962C50.6674 0.963064 52.4159 1.99974 54.1763 3.40776C54.8674 3.96051 55.5671 4.57596 56.2695 5.24895C56.9718 4.57596 57.6715 3.96054 58.3626 3.40779C60.1231 1.99977 61.8716 0.963095 63.5035 0.440993C65.1349 -0.0809446 66.7659 -0.120356 68.1403 0.65792ZM50.8331 30.0609C48.5894 29.8593 46.4664 29.5352 44.5175 29.1065C44.2883 29.9855 44.1069 30.8309 43.9742 31.6351C43.6347 33.6925 43.6231 35.4259 43.9071 36.7436C44.1911 38.0618 44.7409 38.8495 45.4301 39.2399C46.1194 39.6302 47.0898 39.7033 48.3957 39.2855C49.7011 38.8678 51.2259 37.9914 52.8726 36.6742C53.5164 36.1594 54.172 35.5826 54.8335 34.9484C53.4806 33.5073 52.1329 31.866 50.8331 30.0609ZM68.0214 29.1065C66.0726 29.5352 63.9496 29.8593 61.7059 30.0609C60.406 31.866 59.0584 33.5073 57.7055 34.9484C58.3669 35.5826 59.0226 36.1594 59.6663 36.6742C61.3131 37.9913 62.8378 38.8679 64.1432 39.2855C65.4491 39.7033 66.4195 39.6302 67.1088 39.2399C67.7981 38.8495 68.3478 38.0618 68.6319 36.7436C68.9158 35.4259 68.9043 33.6925 68.5648 31.6351C68.432 30.8308 68.2506 29.9855 68.0214 29.1065ZM43.0815 14.9832C42.1909 15.228 41.3538 15.4966 40.5774 15.7859C38.5911 16.5262 37.0548 17.3831 36.0333 18.2832C35.0115 19.1835 34.5909 20.0444 34.5909 20.8251C34.5909 21.6057 35.0115 22.4666 36.0333 23.367C37.0548 24.267 38.5911 25.1239 40.5774 25.8642C41.3538 26.1536 42.1909 26.4221 43.0815 26.6669C43.6775 24.7971 44.4528 22.8317 45.3967 20.8251C44.4528 18.8184 43.6775 16.853 43.0815 14.9832ZM46.5823 23.1981C45.996 24.5584 45.4967 25.8849 45.0866 27.1579C46.4156 27.4461 47.8365 27.685 49.3306 27.8672C48.8443 27.1208 48.3676 26.352 47.9032 25.5629C47.4387 24.7738 46.9982 23.9844 46.5823 23.1981ZM59.0178 30.2403C58.1156 30.2802 57.1985 30.3007 56.2695 30.3007C55.3405 30.3007 54.4234 30.2802 53.5212 30.2404C54.4291 31.4185 55.3505 32.5059 56.2695 33.4907C57.1884 32.5059 58.1099 31.4184 59.0178 30.2403ZM60.5653 13.5268C59.1778 13.426 57.7416 13.3729 56.2695 13.3729C54.7974 13.3729 53.3612 13.426 51.9736 13.5268C51.1908 14.6551 50.4258 15.8485 49.6897 17.099C48.9537 18.3495 48.2825 19.596 47.6777 20.8251C48.2825 22.0542 48.9537 23.3007 49.6897 24.5512C50.4258 25.8016 51.1908 26.995 51.9736 28.1233C53.3611 28.2241 54.7974 28.2773 56.2695 28.2773C57.7415 28.2773 59.1778 28.2241 60.5653 28.1233C61.3482 26.995 62.1132 25.8016 62.8492 24.5512C63.5853 23.3007 64.2565 22.0541 64.8612 20.825C64.2565 19.596 63.5853 18.3494 62.8492 17.099C62.1132 15.8485 61.3482 14.6551 60.5653 13.5268ZM49.3306 13.7829C47.8365 13.965 46.4156 14.2041 45.0867 14.4923C45.4967 15.7652 45.996 17.0917 46.5823 18.4519C46.9982 17.6657 47.4387 16.8764 47.9032 16.0873C48.3677 15.2982 48.8443 14.5293 49.3306 13.7829ZM65.9567 23.1982C65.5408 23.9845 65.1003 24.7738 64.6358 25.5629C64.1713 26.352 63.6947 27.1208 63.2084 27.8672C64.7025 27.6851 66.1234 27.446 67.4523 27.1578C67.0423 25.8849 66.5429 24.5584 65.9567 23.1982ZM52.8727 4.97593C51.2259 3.65881 49.7011 2.78229 48.3957 2.36465C47.0898 1.94685 46.1195 2.01995 45.4302 2.41028C44.7409 2.80062 44.1911 3.58837 43.9071 4.90657C43.6231 6.22426 43.6347 7.95766 43.9742 10.0151C44.107 10.8193 44.2883 11.6646 44.5175 12.5435C46.4664 12.1149 48.5894 11.7908 50.8331 11.5892C52.1329 9.78413 53.4805 8.14279 54.8335 6.70167C54.172 6.06756 53.5164 5.49078 52.8727 4.97593ZM76.5056 18.2832C75.4842 17.3831 73.9479 16.5262 71.9616 15.7859C71.1852 15.4966 70.3481 15.228 69.4575 14.9832C68.8615 16.853 68.0861 18.8184 67.1423 20.825C68.0861 22.8317 68.8615 24.7971 69.4574 26.6669C70.348 26.4221 71.1852 26.1536 71.9616 25.8642C73.9479 25.1239 75.4842 24.267 76.5056 23.367C77.5275 22.4666 77.9481 21.6057 77.9481 20.8251C77.9481 20.0444 77.5275 19.1835 76.5056 18.2832ZM56.2695 8.15946C55.3505 9.14423 54.429 10.2317 53.5212 11.4098C54.4233 11.3699 55.3405 11.3494 56.2695 11.3494C57.1985 11.3494 58.1156 11.3699 59.0177 11.4097C58.1099 10.2317 57.1884 9.14421 56.2695 8.15946ZM67.4523 14.4923C66.1234 14.204 64.7025 13.965 63.2084 13.7829C63.6946 14.5293 64.1713 15.2981 64.6358 16.0872C65.1003 16.8764 65.5408 17.6657 65.9567 18.452C66.5429 17.0917 67.0423 15.7652 67.4523 14.4923ZM67.1088 2.41027C66.4195 2.01995 65.4491 1.94687 64.1432 2.36467C62.8378 2.78231 61.3131 3.65881 59.6663 4.97593C59.0226 5.49077 58.3669 6.06754 57.7055 6.70166C59.0584 8.14278 60.406 9.78411 61.7059 11.5892C63.9496 11.7908 66.0726 12.1149 68.0215 12.5436C68.2506 11.6646 68.4321 10.8193 68.5648 10.0151C68.9043 7.95766 68.9158 6.22427 68.6319 4.90658C68.3478 3.58838 67.7981 2.80061 67.1088 2.41027Z" fill="white"/>
<path fill-rule="evenodd" clip-rule="evenodd" d="M17.2686 52.6724C18.2973 52.6724 19.1732 52.9162 19.8964 53.4037C20.6196 53.8848 21.1588 54.5716 21.5141 55.4642C21.8757 56.3568 22.0191 57.417 21.9443 58.6451H14.4203C14.4906 59.5053 14.729 60.1922 15.1366 60.7056C15.6291 61.3196 16.3398 61.6266 17.2686 61.6266C17.8796 61.6266 18.4065 61.4872 18.8491 61.2087C19.298 60.9238 19.6471 60.5187 19.8964 59.9933L21.8135 60.6106C21.4208 61.5285 20.8252 62.2406 20.0272 62.747C19.2292 63.247 18.341 63.4971 17.3622 63.4971C16.3585 63.4971 15.4764 63.2755 14.7158 62.8324C13.9615 62.383 13.3724 61.7595 12.9484 60.962C12.5307 60.158 12.3219 59.2273 12.3219 58.1702C12.3219 57.0498 12.5275 56.0781 12.939 55.2552C13.3567 54.4323 13.9365 53.7961 14.6783 53.3467C15.4202 52.8973 16.2836 52.6724 17.2686 52.6724ZM17.3436 54.4293C16.3649 54.4293 15.6291 54.7425 15.1366 55.3692C14.7914 55.8083 14.5676 56.3844 14.4644 57.0972H19.9418C19.8534 56.317 19.645 55.7125 19.3165 55.2837C18.8864 54.7141 18.2288 54.4293 17.3436 54.4293Z" fill="white"/>
<path fill-rule="evenodd" clip-rule="evenodd" d="M27.8904 52.6724C28.7943 52.6725 29.5798 52.8308 30.2468 53.1473C30.9201 53.4575 31.4126 53.9513 31.7243 54.6287C31.8863 54.9641 31.9863 55.3186 32.0237 55.692C32.0611 56.0655 32.0798 56.4674 32.0798 56.8978V63.2123H30.3496V61.7246C29.9934 62.2373 29.5728 62.6383 29.0874 62.9275C28.4452 63.3073 27.6534 63.4971 26.712 63.4971C25.9639 63.4971 25.3373 63.358 24.8324 63.0795C24.3274 62.7946 23.9439 62.4209 23.6821 61.9588C23.4265 61.4904 23.2988 60.9778 23.2988 60.4208C23.2988 59.9018 23.3891 59.4459 23.5699 59.0534C23.7507 58.661 24.0188 58.3285 24.3741 58.0563C24.7295 57.7778 25.1659 57.5532 25.6833 57.3823C26.1322 57.2494 26.6404 57.1323 27.2077 57.031C27.775 56.9297 28.3704 56.8344 28.9937 56.7458C29.3812 56.6913 29.7662 56.6361 30.149 56.5816C30.1196 55.9267 29.9529 55.4309 29.6483 55.094C29.3054 54.7015 28.7131 54.5051 27.8715 54.5051C27.3416 54.5051 26.8552 54.6318 26.4126 54.885C25.97 55.1319 25.6615 55.5433 25.487 56.1193L23.6635 55.5496C23.9128 54.6697 24.3866 53.9701 25.0848 53.451C25.7893 52.932 26.7246 52.6724 27.8904 52.6724ZM29.0874 58.398C28.5824 58.474 28.1241 58.5503 27.7126 58.6262C27.3074 58.6959 26.9458 58.7813 26.6278 58.8825C26.3598 58.9775 26.1197 59.0914 25.9077 59.2243C25.702 59.3572 25.5369 59.5186 25.4123 59.7085C25.2938 59.8984 25.2345 60.1295 25.2345 60.4016C25.2345 60.6675 25.3 60.9146 25.4309 61.1425C25.5618 61.364 25.7613 61.5411 26.0294 61.674C26.2974 61.8069 26.6403 61.8733 27.058 61.8733C27.6129 61.8733 28.0899 61.7755 28.4889 61.5793C28.8878 61.3767 29.2089 61.1201 29.452 60.81C29.6951 60.4998 29.854 60.177 29.9288 59.8416C30.0348 59.5378 30.0941 59.1958 30.1066 58.816C30.1173 58.5989 30.1245 58.4066 30.1291 58.2391C29.7587 58.2957 29.4115 58.3493 29.0874 58.398Z" fill="white"/>
<path d="M38.8562 52.6724C39.9596 52.6724 40.9011 52.951 41.6804 53.508C42.4659 54.065 42.9835 54.8279 43.2328 55.7964L41.2877 56.3663C41.0944 55.7903 40.7766 55.3439 40.334 55.0274C39.8976 54.7045 39.3955 54.5432 38.8282 54.5432C38.1861 54.5432 37.6594 54.6984 37.248 55.0085C36.8366 55.3123 36.531 55.73 36.3315 56.2617C36.132 56.7934 36.0292 57.4011 36.0229 58.0848C36.0292 59.1419 36.2661 59.9967 36.7336 60.6487C37.2074 61.3006 37.9056 61.6266 38.8282 61.6266C39.4578 61.6266 39.9661 61.481 40.3526 61.1898C40.7454 60.8923 41.0448 60.4682 41.2505 59.9174L43.2328 60.3923C42.9024 61.3925 42.3568 62.1616 41.5962 62.6996C40.8357 63.2313 39.9129 63.4971 38.8282 63.4971C37.7934 63.497 36.9144 63.263 36.1912 62.7947C35.4681 62.3262 34.9131 61.6835 34.5266 60.8669C34.1463 60.0503 33.9532 59.1229 33.947 58.0848C33.9532 57.0276 34.1527 56.094 34.5455 55.2837C34.9382 54.4671 35.4994 53.8277 36.2287 53.3656C36.9581 52.9035 37.8339 52.6725 38.8562 52.6724Z" fill="white"/>
<path fill-rule="evenodd" clip-rule="evenodd" d="M74.0264 52.6724C74.9303 52.6725 75.7158 52.8308 76.3828 53.1473C77.0561 53.4575 77.5486 53.9513 77.8603 54.6287C78.0223 54.9641 78.1223 55.3186 78.1597 55.692C78.1971 56.0655 78.2158 56.4674 78.2158 56.8978V63.2123H76.4855V61.7246C76.1294 62.2373 75.7088 62.6383 75.2233 62.9275C74.5812 63.3073 73.7894 63.4971 72.848 63.4971C72.0999 63.4971 71.4733 63.358 70.9684 63.0795C70.4634 62.7946 70.0799 62.4209 69.818 61.9588C69.5625 61.4904 69.4348 60.9778 69.4348 60.4208C69.4348 59.9018 69.5251 59.4459 69.7058 59.0534C69.8866 58.661 70.1548 58.3285 70.5101 58.0563C70.8655 57.7778 71.3019 57.5532 71.8193 57.3823C72.2682 57.2494 72.7764 57.1323 73.3437 57.031C73.911 56.9297 74.5064 56.8344 75.1297 56.7458C75.5172 56.6913 75.9022 56.6361 76.285 56.5816C76.2556 55.9267 76.0889 55.4309 75.7843 55.094C75.4414 54.7015 74.8491 54.5051 74.0075 54.5051C73.4776 54.5051 72.9912 54.6318 72.5486 54.885C72.106 55.1319 71.7975 55.5433 71.623 56.1193L69.7995 55.5496C70.0488 54.6697 70.5226 53.9701 71.2208 53.451C71.9253 52.932 72.8606 52.6724 74.0264 52.6724ZM75.2233 58.398C74.7184 58.474 74.2601 58.5503 73.8486 58.6262C73.4434 58.6959 73.0818 58.7813 72.7638 58.8825C72.4958 58.9775 72.2557 59.0914 72.0437 59.2243C71.838 59.3572 71.6729 59.5186 71.5483 59.7085C71.4298 59.8984 71.3705 60.1295 71.3705 60.4016C71.3705 60.6675 71.4359 60.9146 71.5669 61.1425C71.6978 61.364 71.8973 61.5411 72.1654 61.674C72.4334 61.8069 72.7763 61.8733 73.194 61.8733C73.7489 61.8733 74.2259 61.7755 74.6249 61.5793C75.0238 61.3767 75.3448 61.1201 75.588 60.81C75.8311 60.4998 75.99 60.177 76.0648 59.8416C76.1708 59.5378 76.2301 59.1958 76.2426 58.816C76.2533 58.5989 76.2605 58.4066 76.2651 58.2391C75.8947 58.2957 75.5475 58.3493 75.2233 58.398Z" fill="white"/>
<path fill-rule="evenodd" clip-rule="evenodd" d="M107.586 52.6724C108.615 52.6724 109.491 52.9162 110.214 53.4037C110.937 53.8848 111.476 54.5716 111.832 55.4642C112.193 56.3568 112.337 57.417 112.262 58.6451H104.738C104.808 59.5053 105.047 60.1922 105.454 60.7056C105.947 61.3196 106.657 61.6266 107.586 61.6266C108.197 61.6266 108.724 61.4872 109.167 61.2087C109.616 60.9238 109.965 60.5187 110.214 59.9933L112.131 60.6106C111.738 61.5285 111.143 62.2406 110.345 62.747C109.547 63.247 108.659 63.4971 107.68 63.4971C106.676 63.4971 105.794 63.2755 105.034 62.8324C104.279 62.383 103.69 61.7595 103.266 60.962C102.848 60.158 102.64 59.2273 102.64 58.1702C102.64 57.0498 102.845 56.0781 103.257 55.2552C103.674 54.4323 104.254 53.7961 104.996 53.3467C105.738 52.8973 106.601 52.6724 107.586 52.6724ZM107.661 54.4293C106.683 54.4293 105.947 54.7425 105.454 55.3692C105.109 55.8083 104.885 56.3844 104.782 57.0972H110.259C110.171 56.317 109.963 55.7125 109.634 55.2837C109.204 54.7141 108.546 54.4293 107.661 54.4293Z" fill="white"/>
<path d="M47.9154 52.9572H50.917V54.5525H47.9154V59.0819C47.9154 59.4933 47.9183 59.8511 47.9245 60.1549C47.937 60.4587 48.0025 60.715 48.1209 60.9239C48.3453 61.3163 48.7008 61.5412 49.187 61.5981C49.6795 61.6488 50.2562 61.6265 50.917 61.5316V63.2123C50.2811 63.3389 49.6577 63.3929 49.0468 63.3739C48.4358 63.3549 47.8902 63.2345 47.4102 63.0129C46.9302 62.7913 46.5685 62.4431 46.3254 61.9684C46.1072 61.5443 45.9889 61.1139 45.9702 60.6772C45.9578 60.2341 45.9513 59.7339 45.9513 59.177V54.5525H44.0156V52.9572H45.9513V50.1088H47.9154V52.9572Z" fill="white"/>
<path d="M83.4215 52.9572H86.423V54.5525H83.4215V59.0819C83.4215 59.4933 83.4244 59.8511 83.4306 60.1549C83.4431 60.4587 83.5085 60.715 83.6269 60.9239C83.8514 61.3163 84.2069 61.5412 84.6931 61.5981C85.1856 61.6488 85.7622 61.6265 86.423 61.5316V63.2123C85.7872 63.3389 85.1638 63.3929 84.5529 63.3739C83.9419 63.3549 83.3963 63.2345 82.9163 63.0129C82.4363 62.7913 82.0746 62.4431 81.8315 61.9684C81.6133 61.5443 81.495 61.1139 81.4763 60.6772C81.4638 60.2341 81.4574 59.7339 81.4574 59.177V54.5525H79.5217V52.9572H81.4574V50.1088H83.4215V52.9572Z" fill="white"/>
<path fill-rule="evenodd" clip-rule="evenodd" d="M6.16123 49.5389C6.29215 49.5389 6.45426 49.5454 6.64752 49.5581C6.84078 49.5644 7.02481 49.5834 7.19937 49.6151C7.94743 49.7353 8.5708 49.9949 9.06952 50.3937C9.57449 50.7925 9.95156 51.2958 10.2009 51.9035C10.4503 52.5111 10.575 53.182 10.575 53.9163C10.575 55.0051 10.3008 55.9453 9.75215 56.7366C9.38548 57.2612 8.89586 57.6532 8.28414 57.9149L10.8275 63.2123H8.59268L6.24962 58.3033H2.67305V63.2123H0.71875V49.5389H6.16123ZM2.67305 56.4233H6.08654C6.21118 56.4233 6.34826 56.4167 6.49782 56.4041C6.65367 56.3914 6.80031 56.3695 6.93747 56.3378C7.33642 56.2429 7.65746 56.0687 7.90059 55.8156C8.14373 55.556 8.31841 55.2582 8.42439 54.9227C8.53034 54.5873 8.58322 54.2518 8.58322 53.9163C8.58322 53.5809 8.53034 53.2486 8.42439 52.9195C8.31841 52.584 8.14373 52.2895 7.90059 52.0363C7.65747 51.7768 7.3364 51.5997 6.93747 51.5047C6.80031 51.4667 6.65367 51.4412 6.49782 51.4286C6.34827 51.4159 6.21117 51.4097 6.08654 51.4097H2.67305V56.4233Z" fill="white"/>
<path d="M65.4033 59.6989V49.5389H67.3856V63.2123H65.4033L58.7729 53.0427V63.2123H56.7906V49.5389H58.7729L65.4033 59.6989Z" fill="white"/>
<path d="M90.694 63.2123H88.7394V52.9572H90.694V63.2123Z" fill="white"/>
<path d="M97.2238 60.7245L99.9077 52.9572H101.881L98.2153 63.2123H96.2327L92.5671 52.9572H94.5403L97.2238 60.7245Z" fill="white"/>
<path d="M90.694 51.2766H88.7394V49.3491H90.694V51.2766Z" fill="white"/>
</svg>
