<svg width="141" height="25" viewBox="0 0 141 25" fill="none" xmlns="http://www.w3.org/2000/svg">
<path d="M132.446 20.9133C130.957 20.9133 129.598 20.5283 128.367 19.7664C127.144 18.9964 126.17 17.9777 125.43 16.6944C124.706 15.403 124.344 13.9673 124.344 12.4032C124.344 11.2161 124.553 10.1093 124.979 9.0826C125.398 8.04792 125.977 7.14156 126.717 6.36354C127.466 5.5775 128.326 4.9599 129.308 4.51875C130.29 4.0776 131.336 3.85302 132.454 3.85302C133.653 3.85302 134.755 4.09365 135.761 4.56687C136.775 5.0401 137.644 5.70583 138.368 6.55604C139.1 7.40625 139.655 8.40885 140.017 9.54781C140.395 10.6948 140.556 11.93 140.484 13.2534H126.741C126.87 14.2801 127.192 15.1945 127.715 16.0046C128.246 16.8147 128.914 17.4564 129.726 17.9296C130.547 18.3948 131.456 18.6274 132.446 18.6434C133.524 18.6434 134.498 18.3627 135.367 17.8013C136.244 17.2398 136.944 16.4698 137.475 15.4832L139.776 16.0206C139.132 17.4564 138.151 18.6354 136.847 19.5498C135.544 20.4561 134.079 20.9133 132.454 20.9133H132.446ZM126.677 11.4247H138.199C138.126 10.4221 137.813 9.49969 137.274 8.67354C136.743 7.83135 136.059 7.16562 135.214 6.66833C134.369 6.16302 133.444 5.90635 132.446 5.90635C131.448 5.90635 130.523 6.155 129.694 6.65229C128.866 7.14156 128.182 7.79927 127.651 8.64146C127.12 9.47563 126.798 10.398 126.677 11.4247Z" fill="white"/>
<path d="M96.8345 20.4882V4.30219H99.1034V6.54C99.6908 5.72187 100.431 5.06417 101.34 4.58292C102.249 4.09365 103.239 3.85302 104.325 3.85302C105.548 3.85302 106.667 4.15781 107.68 4.75937C108.694 5.35292 109.491 6.14698 110.062 7.14156C110.633 6.14698 111.422 5.35292 112.428 4.75937C113.433 4.15781 114.544 3.85302 115.767 3.85302C116.99 3.85302 118.1 4.14979 119.106 4.74333C120.111 5.33687 120.908 6.13896 121.503 7.14156C122.099 8.14417 122.397 9.25906 122.397 10.4782V20.4962H120.128V10.9755C120.128 10.1093 119.918 9.31521 119.492 8.57729C119.074 7.83937 118.502 7.25385 117.786 6.81271C117.086 6.35552 116.298 6.13094 115.437 6.13094C114.576 6.13094 113.787 6.33948 113.071 6.76458C112.371 7.17365 111.808 7.74312 111.382 8.48104C110.963 9.20292 110.746 10.0371 110.746 10.9755V20.4962H108.477V10.9755C108.477 10.0371 108.268 9.20292 107.849 8.48104C107.431 7.74312 106.86 7.17365 106.144 6.76458C105.428 6.3475 104.639 6.13094 103.778 6.13094C102.917 6.13094 102.137 6.35552 101.429 6.81271C100.713 7.25385 100.149 7.83937 99.723 8.57729C99.3046 9.31521 99.0874 10.1093 99.0874 10.9755V20.4962H96.8184L96.8345 20.4882Z" fill="white"/>
<path d="M91.323 4.30219H93.592V20.4882H91.323L91.2425 17.4804C90.7115 18.5071 89.9713 19.3332 89.0218 19.9749C88.0724 20.6005 86.9379 20.9133 85.6184 20.9133C84.4276 20.9133 83.3172 20.6888 82.2793 20.2476C81.2414 19.7904 80.3322 19.1728 79.5437 18.3868C78.7552 17.6007 78.1356 16.6864 77.6931 15.6517C77.2506 14.617 77.0253 13.5021 77.0253 12.315C77.0253 11.1279 77.2425 10.0531 77.677 9.02646C78.1195 7.99979 78.723 7.10146 79.4954 6.32344C80.2759 5.54542 81.169 4.94385 82.1828 4.51073C83.2126 4.06958 84.3069 3.845 85.4736 3.845C86.8253 3.845 88 4.16583 89.0057 4.81552C90.0115 5.44917 90.8081 6.29135 91.4035 7.32604L91.323 4.30219ZM85.5701 18.7076C86.7287 18.7076 87.7184 18.4269 88.5552 17.8654C89.3839 17.2959 90.0276 16.5259 90.4701 15.5634C90.9207 14.6009 91.154 13.5422 91.154 12.3872C91.154 11.2322 90.9287 10.1333 90.4701 9.17885C90.0195 8.21635 89.3759 7.45437 88.5391 6.89292C87.7103 6.33146 86.7207 6.05073 85.5701 6.05073C84.4195 6.05073 83.3736 6.33948 82.4241 6.90896C81.4828 7.47042 80.7345 8.2324 80.1713 9.1949C79.6161 10.1574 79.3425 11.2161 79.3425 12.3872C79.3425 13.5582 79.6241 14.633 80.2035 15.5955C80.7747 16.542 81.531 17.304 82.4724 17.8654C83.4218 18.4269 84.4517 18.7076 85.5701 18.7076Z" fill="white"/>
<path d="M69.2046 20.793C68.3195 20.769 67.4586 20.6085 66.6138 20.3038C65.769 19.999 65.0368 19.5899 64.4092 19.0766C63.7816 18.5552 63.331 17.9697 63.0655 17.312L65.0287 16.4698C65.1977 16.8869 65.5195 17.2799 65.9862 17.6328C66.4609 17.9777 67 18.2584 67.6034 18.475C68.2069 18.6835 68.8103 18.7798 69.4057 18.7798C70.0655 18.7798 70.677 18.6755 71.2563 18.459C71.8276 18.2424 72.2943 17.9376 72.6483 17.5366C73.0184 17.1275 73.1954 16.6462 73.1954 16.0928C73.1954 15.4993 73.0023 15.0341 72.6161 14.6972C72.2299 14.3523 71.7391 14.0796 71.1437 13.8871C70.5483 13.6785 69.9368 13.486 69.3092 13.3016C68.1667 12.9888 67.1529 12.6439 66.2759 12.2669C65.3988 11.8899 64.7149 11.4086 64.2161 10.8231C63.7333 10.2296 63.4839 9.4676 63.4839 8.53719C63.4839 7.55865 63.7575 6.70844 64.3126 5.99458C64.8759 5.27271 65.6 4.71927 66.5011 4.32625C67.4103 3.92521 68.3759 3.72469 69.4057 3.72469C70.7253 3.72469 71.9241 4.01344 73.0023 4.58292C74.0966 5.1524 74.8851 5.91438 75.3678 6.86885L73.5333 7.95167C73.3402 7.51052 73.0345 7.12552 72.608 6.80469C72.1897 6.48385 71.7069 6.22719 71.1678 6.04271C70.6368 5.85823 70.0977 5.76198 69.5506 5.75396C68.8586 5.74594 68.2149 5.84219 67.6195 6.05875C67.0241 6.26729 66.5414 6.57208 66.1793 6.98115C65.8253 7.39021 65.6483 7.89552 65.6483 8.48906C65.6483 9.0826 65.8253 9.53979 66.1793 9.8526C66.5333 10.1574 67.0161 10.406 67.6195 10.5985C68.231 10.783 68.923 10.9996 69.6954 11.2482C70.677 11.561 71.6023 11.914 72.4632 12.315C73.3241 12.716 74.0241 13.2133 74.5552 13.8069C75.0862 14.4004 75.3437 15.1544 75.3356 16.0607C75.3356 17.0313 75.046 17.8815 74.4586 18.6033C73.8793 19.3252 73.1149 19.8786 72.1897 20.2717C71.2644 20.6486 70.2667 20.8251 69.2046 20.793Z" fill="white"/>
<path d="M53.354 20.9133C51.8655 20.9133 50.5057 20.5283 49.2667 19.7664C48.0437 18.9964 47.0701 17.9777 46.3299 16.6944C45.6057 15.403 45.2437 13.9673 45.2437 12.4032C45.2437 11.2161 45.4529 10.1093 45.8793 9.0826C46.2977 8.04792 46.877 7.14156 47.6172 6.36354C48.3655 5.5775 49.2264 4.9599 50.208 4.51875C51.1897 4.0776 52.2356 3.85302 53.354 3.85302C54.5529 3.85302 55.6552 4.09365 56.6609 4.56687C57.6747 5.0401 58.5437 5.70583 59.2678 6.55604C60 7.40625 60.5552 8.40885 60.9172 9.54781C61.2954 10.6948 61.4483 11.93 61.3839 13.2534H47.6414C47.7701 14.2801 48.092 15.1945 48.6149 16.0046C49.146 16.8147 49.8138 17.4564 50.6264 17.9296C51.4471 18.3948 52.3563 18.6274 53.346 18.6434C54.4241 18.6434 55.3977 18.3627 56.2667 17.8013C57.1437 17.2398 57.8437 16.4698 58.3747 15.4832L60.6759 16.0206C60.0241 17.4564 59.0506 18.6354 57.7391 19.5498C56.4356 20.4561 54.9713 20.9133 53.346 20.9133H53.354ZM47.5851 11.4247H59.1069C59.0345 10.4221 58.7207 9.49969 58.1816 8.67354C57.6506 7.83135 56.9667 7.16562 56.1218 6.66833C55.277 6.16302 54.3517 5.90635 53.354 5.90635C52.3563 5.90635 51.431 6.155 50.6023 6.65229C49.7736 7.14156 49.0897 7.79927 48.5586 8.64146C48.0276 9.47563 47.7057 10.398 47.5851 11.4247Z" fill="white"/>
<path d="M37.431 20.793C36.546 20.769 35.6851 20.6085 34.8402 20.3038C33.9954 19.999 33.2632 19.5899 32.6356 19.0766C32.008 18.5552 31.5575 17.9697 31.292 17.312L33.2552 16.4698C33.4241 16.8869 33.746 17.2799 34.2126 17.6328C34.6874 17.9777 35.2264 18.2584 35.8299 18.475C36.4333 18.6835 37.0368 18.7798 37.6322 18.7798C38.292 18.7798 38.9035 18.6755 39.4828 18.459C40.054 18.2424 40.5207 17.9376 40.8747 17.5366C41.2448 17.1275 41.4218 16.6462 41.4218 16.0928C41.4218 15.4993 41.2287 15.0341 40.8345 14.6972C40.4483 14.3523 39.9575 14.0796 39.3621 13.8871C38.7667 13.6785 38.1552 13.486 37.5276 13.3016C36.3851 12.9888 35.3713 12.6439 34.4943 12.2669C33.6172 11.8899 32.9333 11.4086 32.4345 10.8231C31.9517 10.2296 31.7023 9.4676 31.7023 8.53719C31.7023 7.55865 31.9759 6.70844 32.531 5.99458C33.0943 5.27271 33.8184 4.71927 34.7195 4.32625C35.6287 3.92521 36.5942 3.72469 37.6161 3.72469C38.9356 3.72469 40.1345 4.01344 41.2126 4.58292C42.3069 5.1524 43.0954 5.91438 43.5782 6.86885L41.7437 7.95167C41.5506 7.51052 41.2448 7.12552 40.8184 6.80469C40.4 6.48385 39.9172 6.22719 39.3782 6.04271C38.8471 5.85823 38.308 5.76198 37.7609 5.75396C37.069 5.74594 36.4253 5.84219 35.8299 6.05875C35.2345 6.26729 34.7517 6.57208 34.3897 6.98115C34.0356 7.39021 33.8586 7.89552 33.8586 8.48906C33.8586 9.0826 34.0356 9.53979 34.3897 9.8526C34.7437 10.1574 35.2264 10.406 35.8299 10.5985C36.4494 10.783 37.1333 10.9996 37.9057 11.2482C38.8874 11.561 39.8126 11.914 40.6736 12.315C41.5345 12.716 42.2345 13.2133 42.7655 13.8069C43.2966 14.4004 43.554 15.1544 43.546 16.0607C43.546 17.0313 43.2563 17.8815 42.669 18.6033C42.0816 19.3252 41.3333 19.8786 40.4 20.2717C39.4747 20.6486 38.477 20.8251 37.4149 20.793H37.431Z" fill="white"/>
<path d="M21.3713 12.2188V24.25C19.1747 24.25 17.123 23.6645 15.3529 22.6378C11.7563 20.5604 9.33448 16.6703 9.33448 12.2188V0.1875C11.531 0.1875 13.5828 0.773021 15.3529 1.79969C18.9494 3.87708 21.3713 7.76719 21.3713 12.2188ZM3.46897 0.989583C2.6 0.47625 1.58621 0.1875 0.5 0.1875V6.20312C0.5 8.43292 1.6908 10.374 3.46897 11.4167C4.34598 11.93 5.35977 12.2188 6.43793 12.2188V6.20312C6.43793 3.97333 5.24713 2.03229 3.46897 0.989583Z" fill="white"/>
</svg>
