<svg width="135" height="56" viewBox="0 0 135 56" fill="none" xmlns="http://www.w3.org/2000/svg">
<path d="M36.6111 39.4952L27.672 55.1221L27.6717 55.1217H9.80057L0.867736 39.4952H18.7392L27.672 23.8744L36.6111 39.4952Z" fill="white"/>
<path d="M51.8279 19.1846C53.5801 19.1846 54.9898 19.6852 56.0568 20.6864C57.1325 21.6799 57.6532 22.8809 57.6185 24.289L57.5926 24.3596H55.055C55.055 23.3661 54.7685 22.5602 54.196 21.9422C53.6321 21.3164 52.8342 21.0035 51.8019 21.0034C50.8216 21.0034 50.0624 21.2655 49.5246 21.7896C48.9954 22.3059 48.7307 22.9671 48.7307 23.7729C48.7307 24.5003 49.0172 25.1144 49.5897 25.615C50.1623 26.1078 51.1077 26.5579 52.4263 26.9646C54.1527 27.4497 55.4671 28.1105 56.3693 28.9475C57.2715 29.7846 57.7225 30.8681 57.7225 32.198C57.7225 33.5983 57.189 34.7091 56.1219 35.5305C55.0549 36.3519 53.654 36.7627 51.919 36.7627C50.2274 36.7627 48.7481 36.3127 47.4815 35.4131C46.2237 34.5056 45.6165 33.2304 45.6599 31.5877L45.6859 31.5175H48.2234C48.2234 32.6909 48.5617 33.5593 49.2384 34.1225C49.9237 34.6857 50.8173 34.9675 51.919 34.9675C52.9079 34.9675 53.68 34.721 54.2351 34.2282C54.799 33.7275 55.081 33.0583 55.081 32.2213C55.0809 31.4156 54.8294 30.7547 54.3263 30.2384C53.8231 29.7221 52.9426 29.2685 51.6848 28.8773C49.8803 28.3845 48.4964 27.7429 47.5335 26.9528C46.5705 26.1549 46.0892 25.1026 46.0892 23.7962C46.0892 22.4506 46.6227 21.3474 47.6898 20.4869C48.7655 19.6186 50.145 19.1846 51.8279 19.1846Z" fill="white"/>
<path fill-rule="evenodd" clip-rule="evenodd" d="M65.154 19.1846C67.0971 19.1846 68.6498 19.7557 69.8122 20.8977C70.9834 22.0399 71.5691 23.6203 71.5691 25.6387V30.3323C71.5691 32.3583 70.9878 33.9385 69.8254 35.0728C68.663 36.1992 67.1059 36.7627 65.154 36.7627C63.2281 36.7627 61.6967 36.1993 60.5602 35.0728C59.4239 33.9385 58.8557 32.3583 58.8557 30.3323V25.6387C58.8557 23.6204 59.4238 22.0399 60.5602 20.8977C61.7053 19.7556 63.2368 19.1846 65.154 19.1846ZM65.154 21.0622C63.9655 21.0622 63.0543 21.4493 62.421 22.2237C61.7878 22.9904 61.4712 24.1169 61.4712 25.6032V30.3323C61.4712 31.8341 61.7878 32.9723 62.421 33.7468C63.063 34.5213 63.9742 34.9087 65.154 34.9087C66.3684 34.9087 67.3008 34.5252 67.9514 33.7586C68.6107 32.9841 68.9404 31.8421 68.9404 30.3323V25.6032C68.9404 24.1169 68.6107 22.9904 67.9514 22.2237C67.2922 21.4494 66.3597 21.0622 65.154 21.0622Z" fill="white"/>
<path d="M76.1769 34.7092H83.5681V36.5163H73.535V19.431H76.1769V34.7092Z" fill="white"/>
<path d="M87.6678 36.5163H85.0395V19.431H87.6678V36.5163Z" fill="white"/>
<path fill-rule="evenodd" clip-rule="evenodd" d="M95.685 19.431C97.6976 19.431 99.3372 20.1155 100.604 21.4844C101.879 22.8535 102.517 24.6138 102.517 26.7651V29.194C102.517 31.3531 101.879 33.1134 100.604 34.4746C99.3372 35.8358 97.6976 36.5162 95.685 36.5163H90.4799V19.431H95.685ZM93.1214 34.7092H95.5938C96.9211 34.7092 97.9664 34.1967 98.7298 33.1719C99.5019 32.1471 99.8879 30.8211 99.8879 29.194V26.7415C99.8879 25.13 99.5019 23.8156 98.7298 22.7986C97.9664 21.7739 96.9211 21.2617 95.5938 21.2617H93.1214V34.7092Z" fill="white"/>
<path d="M107.241 36.5163H104.613V19.431H107.241V36.5163Z" fill="white"/>
<path d="M127.335 27.7272H127.413L131.291 19.431H134.219L128.649 30.3674V36.5163H126.021V30.2148L120.632 19.658V21.2617H115.766V36.5163H113.124V21.2617H108.283V19.431H123.47L127.335 27.7272Z" fill="white"/>
<path d="M36.518 16.0611H18.6465L9.71408 31.6819L0.78125 16.0611L9.71408 0.43457H27.5856L36.518 16.0611Z" fill="white"/>
</svg>
