<svg width="141" height="32" viewBox="0 0 141 32" fill="none" xmlns="http://www.w3.org/2000/svg">
<path fill-rule="evenodd" clip-rule="evenodd" d="M30.7975 0.875C31.4494 0.875004 31.9773 1.39685 31.9773 2.04275V30.8321C31.9773 31.4765 31.4494 31.9999 30.7975 31.9999H1.67986C1.02791 31.9998 0.500003 31.478 0.5 30.8321V2.04275C0.500023 1.39837 1.02792 0.875016 1.67986 0.875H30.7975ZM24.7634 14.8763C24.0253 14.8763 23.3021 14.955 22.6305 15.1138C21.9589 15.2727 21.3689 15.5193 20.8577 15.8566C20.3464 16.1939 19.944 16.622 19.6475 17.1424C19.351 17.6627 19.2027 18.2859 19.2027 19.0105C19.2027 19.9362 19.4736 20.7259 20.0182 21.3793C20.5612 22.0328 21.3856 22.5864 22.4913 23.0387C22.9255 23.2142 23.3309 23.3852 23.706 23.5531C24.0812 23.721 24.4049 23.8965 24.6787 24.0765C24.9524 24.258 25.1673 24.4547 25.3261 24.6679C25.4849 24.8812 25.5636 25.1247 25.5637 25.3955C25.5637 25.5967 25.5137 25.7828 25.4153 25.9537C25.317 26.1246 25.1673 26.2744 24.9661 26.4C24.7649 26.5255 24.5153 26.6254 24.2158 26.6965C23.9163 26.7676 23.5653 26.8039 23.1645 26.8039C22.4792 26.8039 21.8015 26.6859 21.1299 26.4499C20.4583 26.2139 19.8366 25.8599 19.2633 25.3865V28.492L19.2662 28.4981C19.779 28.7568 20.3872 28.9503 21.0875 29.0804C21.7894 29.2105 22.5276 29.2741 23.3036 29.2741C24.0796 29.2741 24.78 29.203 25.4607 29.0608C26.1414 28.9186 26.739 28.6841 27.2533 28.3573C27.7661 28.0306 28.173 27.604 28.4725 27.0761C28.772 26.5482 28.9217 25.8963 28.9217 25.1203C28.9217 24.5576 28.8356 24.0644 28.6647 23.6394C28.4937 23.2158 28.2471 22.8391 27.9234 22.5078C27.6012 22.178 27.2139 21.8815 26.7632 21.6198C26.3124 21.3582 25.8041 21.1102 25.2384 20.8772C24.8239 20.7093 24.4518 20.5459 24.122 20.3871C23.7923 20.2283 23.5124 20.0664 23.2825 19.9015C23.0526 19.7366 22.874 19.5611 22.75 19.3765C22.6245 19.192 22.5624 18.9833 22.5624 18.7503C22.5624 18.537 22.6184 18.3449 22.7303 18.1724C22.8423 18.0015 22.9996 17.8533 23.2038 17.7307C23.408 17.6082 23.6576 17.513 23.9541 17.4449C24.2506 17.3768 24.5788 17.3436 24.9419 17.3436C25.2051 17.3436 25.4834 17.3632 25.7768 17.401C26.0703 17.4404 26.3639 17.4994 26.6604 17.5811C26.9568 17.6613 27.2443 17.7641 27.5241 17.8866C27.8039 18.0091 28.0625 18.1514 28.2984 18.3132V15.4103C27.8174 15.2288 27.2926 15.0941 26.7239 15.0079C26.1551 14.9202 25.5016 14.8763 24.7634 14.8763ZM6.79579 17.4328H10.7952V28.799H13.9795V17.4328H17.9972V14.8794H6.79579V17.4328Z" fill="white"/>
<path d="M55.5177 20.0315C55.5494 20.1601 55.6463 20.4794 55.7734 21.0224H55.8369C55.8687 20.8303 55.9654 20.5111 56.0925 20.0634L59.7682 10.0599H61.942V10.0616L55.9654 25.1142C54.9111 27.7992 53.409 29.141 51.4909 29.141C50.9479 29.141 50.5001 29.0774 50.1491 28.9806V27.1275C50.5969 27.2879 51.0114 27.3515 51.3639 27.3515C52.4182 27.3515 53.1851 26.7116 53.7282 25.4652L54.7507 23.004L49.7014 10.0599H52.0022L55.5177 20.0315Z" fill="white"/>
<path fill-rule="evenodd" clip-rule="evenodd" d="M128.194 9.77115C129.857 9.77116 131.135 10.3459 132.061 11.4652C132.988 12.6164 133.434 14.1503 133.434 16.0986C133.434 18.2723 132.891 20.0301 131.837 21.3718C130.783 22.7136 129.376 23.3853 127.65 23.3853C125.732 23.3535 124.295 22.4902 123.368 20.7335H123.305V29.0108H122.154V10.0585H123.305V12.7435H123.369C123.848 11.7844 124.487 11.0493 125.351 10.538C126.213 10.0267 127.172 9.77115 128.194 9.77115ZM128.036 10.8269C126.534 10.8269 125.351 11.3382 124.52 12.3607C123.69 13.3833 123.305 14.5345 123.305 15.908V17.5387C123.305 18.8487 123.721 19.968 124.52 20.8938C125.351 21.8211 126.406 22.3005 127.748 22.3005C129.09 22.3005 130.146 21.7258 130.976 20.6065C131.807 19.4553 132.223 17.9865 132.223 16.1319C132.223 14.5013 131.838 13.223 131.071 12.2654C130.305 11.308 129.314 10.8269 128.036 10.8269Z" fill="white"/>
<path fill-rule="evenodd" clip-rule="evenodd" d="M69.805 9.74235C71.4674 9.74235 72.7774 10.3172 73.7047 11.4683C74.6319 12.6195 75.1115 14.1851 75.1115 16.1349C75.1115 18.3086 74.5683 20.0346 73.514 21.3446C72.4597 22.6546 71.0211 23.2944 69.1999 23.2944C67.5692 23.358 66.2592 22.6228 65.3334 21.1524L65.3304 21.151H65.2669V28.9806H63.1899V10.0616H65.2669V12.3306H65.3304C66.353 10.6046 67.8551 9.74235 69.805 9.74235ZM69.3255 11.5288C68.1108 11.5288 67.1517 11.9448 66.4165 12.7752C65.6496 13.6057 65.2987 14.6616 65.2987 15.9398V17.7625C65.2987 18.8486 65.6496 19.7443 66.353 20.4794C67.0564 21.2146 67.9186 21.5972 69.0062 21.5972C70.2527 21.5972 71.2435 21.1177 71.9787 20.1587C72.6821 19.1997 73.033 17.8579 73.033 16.1319C73.033 14.6934 72.7139 13.5437 72.0422 12.7435C71.3706 11.913 70.4766 11.5288 69.3255 11.5288Z" fill="white"/>
<path fill-rule="evenodd" clip-rule="evenodd" d="M82.5265 9.80291C84.2207 9.80291 85.5308 10.3459 86.458 11.4652C87.3853 12.5513 87.8648 14.0852 87.8648 16.035L87.833 17.0577L87.8301 17.0592H78.6905C78.7223 18.4977 79.1064 19.6156 79.8415 20.4143C80.5767 21.213 81.5993 21.5972 82.9093 21.5972C84.3796 21.5972 85.7214 21.1177 86.9361 20.1587V22.1085C85.7849 22.939 84.2828 23.355 82.4298 23.355C80.5768 23.355 79.1699 22.7802 78.1155 21.5972C77.0612 20.4143 76.55 18.7534 76.55 16.6432C76.55 14.533 77.1248 12.9674 78.276 11.7209C79.4271 10.4427 80.8324 9.80292 82.5265 9.80291ZM82.4615 11.4986C81.4707 11.4986 80.6402 11.8495 79.9686 12.5529C79.297 13.2563 78.8508 14.1836 78.6905 15.3014H85.6881C85.6881 14.0868 85.4007 13.1595 84.8259 12.4894C84.251 11.8178 83.4523 11.4986 82.4615 11.4986Z" fill="white"/>
<path d="M106.365 9.74087C107.356 9.74087 108.315 9.93294 109.241 10.3474V11.6574C108.313 11.0826 107.291 10.7952 106.205 10.7952C104.671 10.7952 103.456 11.3383 102.497 12.4259C101.538 13.5135 101.09 14.9505 101.09 16.6764C101.09 18.4024 101.538 19.7124 102.4 20.735C103.262 21.7575 104.414 22.2688 105.82 22.2688C107.13 22.2688 108.25 21.9179 109.209 21.2462V22.4602C108.25 23.0345 107.101 23.355 105.758 23.355C104.001 23.355 102.562 22.7484 101.476 21.5337C100.39 20.319 99.8453 18.7533 99.8453 16.7717C99.8453 14.7901 100.452 13.0324 101.667 11.7224C102.881 10.4125 104.447 9.74088 106.365 9.74087Z" fill="white"/>
<path d="M94.4767 4.56142C95.5628 4.56142 96.6504 4.75352 97.7048 5.10445V6.41445C96.6504 5.93495 95.4993 5.67924 94.2847 5.67924C93.07 5.67924 92.0791 5.9984 91.344 6.60649C90.6088 7.24635 90.2579 8.01341 90.2579 8.97094C90.2579 9.92843 90.5136 10.6334 90.9931 11.1764C91.4727 11.7195 92.5588 12.4863 94.1894 13.4135C95.8836 14.3726 97.0014 15.2349 97.5777 15.97C98.1525 16.7052 98.4082 17.5675 98.4082 18.5583C98.4082 19.965 97.9287 21.0829 96.9697 21.9784C96.0107 22.8739 94.6371 23.2884 92.8794 23.2884C92.2395 23.2884 91.5376 23.1932 90.7057 23.001C89.927 22.8209 89.3439 22.67 88.9325 22.4412L88.8526 22.3943V20.9573C90.1626 21.7878 91.4726 22.2038 92.8159 22.2038C94.1591 22.2038 95.3087 21.9164 96.0439 21.3083C96.779 20.7002 97.13 19.9015 97.13 18.8472C97.13 17.92 96.8744 17.1848 96.3949 16.61C95.9154 16.0669 94.8291 15.3 93.1985 14.341C91.3455 13.2549 90.1944 12.3593 89.7149 11.6559C89.2354 10.9208 88.9797 10.0903 88.9797 9.16298C88.9797 7.88479 89.4909 6.79868 90.4817 5.90318C91.4725 5.00768 92.8143 4.56142 94.4767 4.56142Z" fill="white"/>
<path d="M137.08 10.0902H140.5V11.1445H137.08V19.7093C137.08 20.6048 137.209 21.2433 137.496 21.6593C137.783 22.0752 138.263 22.2658 138.934 22.2658C139.414 22.2658 139.925 22.1055 140.5 21.7863V22.8437C139.893 23.1311 139.317 23.2597 138.806 23.2597C136.888 23.2597 135.93 22.1085 135.93 19.8077V11.1462H133.598V10.0917H135.93V6.7034L137.08 6.31917V10.0902Z" fill="white"/>
<path d="M115.7 9.80129C116.179 9.80129 116.627 9.8649 116.978 10.0252V11.2717H116.946L116.945 11.2732C116.56 10.9858 116.114 10.8572 115.571 10.8572C114.549 10.8572 113.685 11.4002 113.015 12.4545C112.311 13.5089 111.992 15.011 111.992 16.9608V23.0646H110.841V10.057H111.992V12.9326H112.056C112.343 11.9418 112.823 11.1748 113.462 10.6318C114.102 10.0888 114.836 9.8013 115.7 9.80129Z" fill="white"/>
<path d="M52.0657 6.80163H46.8258V23.0372H44.6838V6.80163H39.4743V4.8836H52.0657V6.80163Z" fill="white"/>
<path d="M119.374 23.0343H118.223V10.0585H119.374V23.0343Z" fill="white"/>
<path d="M109.209 22.461V22.4602C109.209 22.4599 109.21 22.4598 109.21 22.4595L109.209 22.461Z" fill="white"/>
<path d="M118.798 4.88065C119.053 4.88065 119.277 4.97586 119.501 5.13621C119.693 5.29655 119.788 5.5205 119.788 5.8079C119.788 6.06351 119.693 6.31911 119.501 6.51121C119.277 6.70332 119.053 6.79868 118.798 6.79868C118.542 6.79868 118.318 6.70332 118.126 6.51121C117.934 6.31912 117.839 6.09527 117.839 5.8079C117.839 5.5205 117.934 5.29655 118.126 5.13621C118.318 4.97586 118.542 4.88065 118.798 4.88065Z" fill="white"/>
</svg>
