<svg width="110" height="38" viewBox="0 0 110 38" fill="none" xmlns="http://www.w3.org/2000/svg">
<path d="M11.8779 15.5937C11.71 15.94 11.5393 16.1254 11.4777 16.1254C11.4162 16.1254 11.2427 15.94 11.0776 15.5937L6.58869 6.35132C5.95902 5.0532 4.61852 4.22687 3.14369 4.22687H0.8125L8.34618 18.4626C9.08779 19.8535 10.557 19.8807 11.3798 19.8807H11.4777C12.4209 19.8807 13.8453 19.8807 14.5729 18.4626L22.1066 4.22959H19.781C18.3034 4.22959 16.9601 5.06138 16.3332 6.36223L11.8779 15.5964V15.5937Z" fill="white"/>
<path d="M25.8539 4.22687H23.9117C23.1883 4.22687 22.602 4.79829 22.602 5.50318V18.4299C22.602 19.1348 23.1883 19.7062 23.9117 19.7062H25.8539C26.5772 19.7062 27.1636 19.1348 27.1636 18.4299V5.50318C27.1636 4.79829 26.5772 4.22687 25.8539 4.22687Z" fill="white"/>
<path d="M74.8424 16.8727C74.2715 16.8727 72.5308 16.8727 71.5625 16.2318C70.4599 15.5227 70.4682 14.2873 70.4766 13.2947V7.06311H74.5261C75.3013 7.06311 75.9282 6.45223 75.9282 5.6968V4.22959H70.4794V2.11332C70.4794 1.31699 69.819 0.673383 69.0018 0.673383H67.3927C66.5755 0.673383 65.915 1.31699 65.915 2.11332V4.22959H56.9065V2.03696C56.9065 1.28154 56.2796 0.670656 55.5044 0.670656H53.7498C52.9746 0.670656 52.3477 1.28154 52.3477 2.03696V4.22687H49.6583V5.61226C49.6583 6.41132 50.3243 7.06038 51.1443 7.06038H52.3449V14.6091C52.3449 16.45 52.9634 17.6717 54.3542 18.5635C55.6416 19.3844 57.1248 19.7035 59.6519 19.7035H61.5465C62.0558 19.7035 62.4672 19.3026 62.4672 18.8062V16.87H61.2722C60.7013 16.87 58.9606 16.87 57.9923 16.2291C56.8897 15.52 56.8981 14.2846 56.9065 13.2919V7.06038H65.9178V14.6091C65.9178 16.45 66.5363 17.6717 67.9272 18.5635C69.2145 19.3844 70.6977 19.7035 73.2248 19.7035H75.1194C75.6288 19.7035 76.0401 19.3026 76.0401 18.8062V16.87H74.8452L74.8424 16.8727Z" fill="white"/>
<path d="M34.4846 15.1491C34.3558 14.7482 34.2467 13.8865 34.2327 13.2128H45.4465C46.4204 13.2128 47.092 13.0274 47.6237 12.6101C48.4773 11.9447 48.592 11.0257 48.592 10.2157C48.592 8.51123 48.2702 6.39496 45.7599 5.16228C43.9101 4.24868 41.5341 4.17232 39.2589 4.17232C37.4426 4.17232 34.0648 4.17232 31.8959 5.63135C29.6907 7.11493 29.52 9.25302 29.52 12.1138C29.52 14.1537 29.6291 16.27 30.95 17.7427C32.6012 19.5589 34.9435 19.7089 37.0089 19.7089H46.9885C47.5258 19.7089 47.9596 19.2835 47.9596 18.7626V16.8754H38.2962C36.6143 16.8754 34.9883 16.6654 34.4762 15.1519L34.4846 15.1491ZM34.2383 10.4093C34.2691 9.46573 34.2915 8.71849 35.0947 8.00943C36.2365 7.00038 37.9632 7.00584 39.1106 7.00311H39.2029C40.4343 7.00311 41.8419 7.05765 42.9166 7.69581C43.2048 7.86762 44.1396 8.52214 44.1396 9.69481C44.1396 10.0875 44.0388 10.4884 43.286 10.4884H37.2635C36.4827 10.513 34.7784 10.693 34.2355 11.7811V10.4093H34.2383Z" fill="white"/>
<path d="M82.0178 15.1491C81.8891 14.7482 81.78 13.8865 81.766 13.2128H92.9797C93.9536 13.2128 94.6253 13.0274 95.157 12.6101C96.0106 11.9447 96.1253 11.0257 96.1253 10.2157C96.1253 8.51123 95.8035 6.39496 93.2932 5.16228C91.4433 4.24868 89.0674 4.17232 86.7922 4.17232C84.9759 4.17232 81.5981 4.17232 79.4292 5.63135C77.2239 7.11493 77.0532 9.25302 77.0532 12.1138C77.0532 14.1537 77.1624 16.27 78.4833 17.7427C80.1344 19.5589 82.4768 19.7089 84.5421 19.7089H94.5217C95.0591 19.7089 95.4928 19.2835 95.4928 18.7626V16.8754H85.8295C84.1475 16.8754 82.5216 16.6654 82.0094 15.1519L82.0178 15.1491ZM81.7688 10.4093C81.7996 9.46573 81.8219 8.71849 82.6251 8.00943C83.7669 7.00038 85.4936 7.00584 86.641 7.00311H86.7334C87.9647 7.00311 89.3724 7.05765 90.4471 7.69581C90.7353 7.86762 91.67 8.52214 91.67 9.69481C91.67 10.0875 91.5693 10.4884 90.8165 10.4884H84.794C84.0132 10.513 82.3089 10.693 81.766 11.7811V10.4093H81.7688Z" fill="white"/>
<path d="M23.8389 0.0625C23.1561 0.0625 22.6048 0.602477 22.6048 1.26518V4.1696C22.991 3.286 23.8977 2.92874 24.8212 2.83874C24.9695 2.82511 25.3361 2.82238 25.7447 2.82238C26.5283 2.82511 27.1664 2.20604 27.1664 1.44244V1.26518C27.1664 0.59975 26.6123 0.0625 25.9322 0.0625H23.8389Z" fill="white"/>
<path d="M103.197 14.7564V1.90606C103.197 1.16427 102.582 0.564297 101.82 0.564297H100.012C99.2513 0.564297 98.6356 1.16427 98.6356 1.90606V14.5655C98.6356 17.4045 100.998 19.7062 103.911 19.7062H107.513C108.386 19.7062 109.094 19.0162 109.094 18.1654V16.8727H105.372C104.171 16.8727 103.2 15.9236 103.2 14.7564H103.197Z" fill="white"/>
<path d="M83.7949 37.25H80.2212V25.3869H83.7949V37.25Z" fill="white"/>
<path d="M97.5666 34.9128C97.5666 36.3964 96.769 37.2473 95.171 37.2473H86.0869C85.7651 37.2473 85.5048 36.9936 85.5048 36.68V25.9514C85.5048 25.6378 85.7651 25.3841 86.0869 25.3841H95.171C96.769 25.3841 97.5666 26.235 97.5666 27.7186V34.9128ZM93.99 27.5386C93.99 27.1132 93.7773 26.9059 93.3407 26.9059L89.2353 26.9223C89.1485 26.9223 89.0786 26.9904 89.0786 27.075V35.5728C89.0786 35.6573 89.1485 35.7255 89.2353 35.7255H93.3407C93.699 35.7255 93.99 35.4419 93.99 35.0928V27.5386Z" fill="white"/>
<path d="M109.091 37.25H101.672C100.085 37.25 99.2765 36.3909 99.2765 34.9156V27.7213C99.2765 26.265 100.085 25.3869 101.672 25.3869H109.091V26.9059H103.502C103.066 26.9059 102.853 27.1132 102.853 27.5386V35.0955C102.853 35.5564 103.066 35.7282 103.502 35.7282H109.091V37.25Z" fill="white"/>
</svg>
