<svg width="33" height="33" viewBox="0 0 33 33" fill="none" xmlns="http://www.w3.org/2000/svg">
<path d="M13.8332 23.9201V27.042C13.8332 28.5148 15.0271 29.7087 16.4998 29.7087C17.9726 29.7087 19.1665 28.5147 19.1665 27.042V23.9201M16.4998 3.04199V4.37533M4.49984 16.3753H3.1665M7.83317 7.70866L7.03304 6.90853M25.1665 7.70866L25.9668 6.90853M29.8332 16.3753H28.4998M24.4998 16.3753C24.4998 20.7936 20.9181 24.3753 16.4998 24.3753C12.0816 24.3753 8.49984 20.7936 8.49984 16.3753C8.49984 11.957 12.0816 8.37533 16.4998 8.37533C20.9181 8.37533 24.4998 11.957 24.4998 16.3753Z" stroke="white" stroke-width="1.5" stroke-linecap="round" stroke-linejoin="round"/>
</svg>
