<svg width="1920" height="298" viewBox="0 0 1920 298" fill="none" xmlns="http://www.w3.org/2000/svg">
<path opacity="0.6" d="M-1790.08 95.8494L-2687.65 261.879C-2768.26 276.789 -2850.39 281.731 -2932.2 276.595L-3527 239.25C-3625.74 239.25 -3723.88 223.966 -3817.94 193.942L-4275.88 47.7691C-4439.21 -4.36704 -4613.21 -13.6323 -4781.16 20.8632L-5489 166.25V297.25H-3609H1920V238.615C1875.59 238.615 1831.44 231.752 1789.12 218.268L1253.27 47.5247C1090.15 -4.45371 916.406 -13.68 748.692 20.7295L-35.7505 181.672C-133.381 201.702 -233.458 207.025 -332.663 197.465L-1512.26 83.7802C-1604.98 74.8445 -1698.49 78.9068 -1790.08 95.8494Z" fill="#1A4CD8"/>
</svg>
