<svg width="1920" height="245" viewBox="0 0 1920 245" fill="none" xmlns="http://www.w3.org/2000/svg">
<path opacity="0.3" d="M1428.41 168.868L972.383 65.3708C820.239 30.8414 662.128 32.3887 510.69 69.8891L64.9982 180.255L0 180.255V244.25L4105 244.25H5985V167.25L5973.17 169.902C5828.21 202.392 5677.84 202.178 5532.97 169.277L5077.53 65.8354C4925.29 31.2587 4767.07 32.8058 4615.54 70.3527L4255.09 159.666C4198.58 173.668 4140.56 180.643 4082.34 180.432C4048.82 180.31 4015.36 177.808 3982.19 172.943L2879.03 11.1011C2758.04 -6.64937 2634.81 -2.05678 2515.48 24.6509L1868.14 169.527C1723.33 201.936 1573.12 201.71 1428.41 168.868Z" fill="#1A4CD8"/>
</svg>
