<svg width="5985" height="244" viewBox="0 0 5985 244" fill="none" xmlns="http://www.w3.org/2000/svg">
<path opacity="0.3" d="M1428.41 168.618L972.383 65.1213C820.239 30.5919 662.128 32.1392 510.69 69.6396L64.9982 180.005L0 180.006V244.001L4105 244H5985V167L5973.17 169.652C5828.21 202.142 5677.84 201.929 5532.97 169.027L5077.53 65.5859C4925.29 31.0092 4767.07 32.5563 4615.54 70.1032L4255.09 159.417C4198.58 173.419 4140.56 180.393 4082.34 180.182C4048.82 180.061 4015.36 177.558 3982.19 172.693L2879.03 10.8516C2758.04 -6.89888 2634.81 -2.30629 2515.48 24.4014L1868.14 169.278C1723.33 201.686 1573.12 201.461 1428.41 168.618Z" fill="#1A4CD8"/>
</svg>
