<svg width="5689" height="203" viewBox="0 0 5689 203" fill="none" xmlns="http://www.w3.org/2000/svg">
<path d="M936.819 156.161L851.639 139.978C675.143 106.446 490.42 133.906 311.171 121.86C277.39 119.59 242.011 114.661 206 106C108.22 82.4832 0 78 0 78V203H3809H5689V78L5668.62 75.9169C5533.62 62.1168 5397.22 75.9387 5267.73 116.541L5231.23 127.987C5074.17 177.233 4907.39 186.951 4745.68 156.276L4541.45 117.539C4441.73 98.6231 4339.71 94.9998 4238.9 106.793L3895.5 146.966H3770.14C3677.98 146.966 3586.27 134.227 3497.6 109.11L3248.59 38.5764C3089.68 -6.43962 2922.08 -11.3898 2760.78 24.1681L2474.48 87.2819C2371.15 110.061 2264.86 116.296 2159.57 105.753L1858.31 75.5887C1724.32 62.172 1588.99 75.9571 1460.46 116.117L1421.69 128.23C1264.82 177.243 1098.28 186.837 936.819 156.161Z" fill="#1A4CD8"/>
</svg>
