<svg width="21" height="21" viewBox="0 0 21 21" fill="none" xmlns="http://www.w3.org/2000/svg">
<path d="M11.9531 2.56979L18.2265 6.64747C18.4482 6.79156 18.559 6.8636 18.6393 6.9597C18.7104 7.04476 18.7638 7.14316 18.7964 7.24912C18.8332 7.36882 18.8332 7.50101 18.8332 7.76539V13.8751C18.8332 15.2753 18.8332 15.9753 18.5607 16.5101C18.321 16.9805 17.9386 17.363 17.4681 17.6027C16.9334 17.8751 16.2333 17.8751 14.8332 17.8751H6.1665C4.76637 17.8751 4.06631 17.8751 3.53153 17.6027C3.06112 17.363 2.67867 16.9805 2.43899 16.5101C2.1665 15.9753 2.1665 15.2753 2.1665 13.8751V7.76539C2.1665 7.50101 2.1665 7.36882 2.20331 7.24912C2.2359 7.14316 2.28929 7.04476 2.36038 6.9597C2.44068 6.8636 2.55152 6.79156 2.77319 6.64747L9.04653 2.56979M11.9531 2.56979C11.4271 2.22787 11.1641 2.05691 10.8807 1.99039C10.6302 1.93159 10.3695 1.93159 10.119 1.99039C9.83559 2.05691 9.57257 2.22787 9.04653 2.56979M11.9531 2.56979L17.1133 5.92389C17.6865 6.29647 17.9731 6.48276 18.0724 6.71901C18.1591 6.92547 18.1591 7.15815 18.0724 7.36461C17.9731 7.60086 17.6865 7.78715 17.1133 8.15974L11.9531 11.5138C11.4271 11.8558 11.1641 12.0267 10.8807 12.0932C10.6302 12.152 10.3695 12.152 10.119 12.0932C9.83559 12.0267 9.57257 11.8558 9.04653 11.5138L3.88639 8.15974C3.31318 7.78715 3.02658 7.60086 2.92732 7.36461C2.84057 7.15815 2.84057 6.92547 2.92732 6.71901C3.02658 6.48276 3.31318 6.29647 3.88639 5.92389L9.04653 2.56979M18.4165 16.2085L12.8808 11.2085M8.11886 11.2085L2.58317 16.2085" stroke="white" stroke-width="1.5" stroke-linecap="round" stroke-linejoin="round"/>
</svg>
