<svg width="29" height="26" viewBox="0 0 29 26" fill="none" xmlns="http://www.w3.org/2000/svg">
<path d="M19.8332 6.33333C19.8332 5.09337 19.8332 4.47339 19.6969 3.96472C19.327 2.58436 18.2488 1.50617 16.8684 1.1363C16.3598 1 15.7398 1 14.4998 1C13.2599 1 12.6399 1 12.1312 1.1363C10.7509 1.50617 9.67267 2.58436 9.3028 3.96472C9.1665 4.47339 9.1665 5.09337 9.1665 6.33333M15.5665 20.3333H22.0998C22.4732 20.3333 22.6599 20.3333 22.8025 20.2607C22.9279 20.1968 23.0299 20.0948 23.0938 19.9693C23.1665 19.8267 23.1665 19.64 23.1665 19.2667V16.0667C23.1665 15.6933 23.1665 15.5066 23.0938 15.364C23.0299 15.2386 22.9279 15.1366 22.8025 15.0727C22.6599 15 22.4732 15 22.0998 15H15.5665C15.1931 15 15.0065 15 14.8638 15.0727C14.7384 15.1366 14.6364 15.2386 14.5725 15.364C14.4998 15.5066 14.4998 15.6933 14.4998 16.0667V19.2667C14.4998 19.64 14.4998 19.8267 14.5725 19.9693C14.6364 20.0948 14.7384 20.1968 14.8638 20.2607C15.0065 20.3333 15.1931 20.3333 15.5665 20.3333ZM7.5665 25H21.4332C23.6734 25 24.7935 25 25.6491 24.564C26.4018 24.1805 27.0137 23.5686 27.3972 22.816C27.8332 21.9603 27.8332 20.8402 27.8332 18.6V12.7333C27.8332 10.4931 27.8332 9.37302 27.3972 8.51737C27.0137 7.76472 26.4018 7.1528 25.6491 6.76931C24.7935 6.33333 23.6734 6.33333 21.4332 6.33333H7.5665C5.32629 6.33333 4.20619 6.33333 3.35054 6.76931C2.59789 7.1528 1.98597 7.76472 1.60248 8.51737C1.1665 9.37302 1.1665 10.4931 1.1665 12.7333V18.6C1.1665 20.8402 1.1665 21.9603 1.60248 22.816C1.98597 23.5686 2.59789 24.1805 3.35054 24.564C4.20619 25 5.32629 25 7.5665 25Z" stroke="white" stroke-width="1.5" stroke-linecap="round" stroke-linejoin="round"/>
</svg>
