<svg width="21" height="21" viewBox="0 0 21 21" fill="none" xmlns="http://www.w3.org/2000/svg">
<path d="M4.6665 12.2806C3.1237 12.9612 2.1665 13.9096 2.1665 14.9587C2.1665 17.0297 5.89746 18.7087 10.4998 18.7087C15.1022 18.7087 18.8332 17.0297 18.8332 14.9587C18.8332 13.9096 17.876 12.9612 16.3332 12.2806M15.4998 7.04199C15.4998 10.4284 11.7498 12.042 10.4998 14.542C9.24984 12.042 5.49984 10.4284 5.49984 7.04199C5.49984 4.28057 7.73841 2.04199 10.4998 2.04199C13.2613 2.04199 15.4998 4.28057 15.4998 7.04199ZM11.3332 7.04199C11.3332 7.50223 10.9601 7.87533 10.4998 7.87533C10.0396 7.87533 9.6665 7.50223 9.6665 7.04199C9.6665 6.58176 10.0396 6.20866 10.4998 6.20866C10.9601 6.20866 11.3332 6.58176 11.3332 7.04199Z" stroke="white" stroke-width="1.5" stroke-linecap="round" stroke-linejoin="round"/>
</svg>
