<svg width="30" height="30" viewBox="0 0 30 30" fill="none" xmlns="http://www.w3.org/2000/svg">
<path d="M7.12584 13.9721C7.04296 13.438 6.99997 12.8908 6.99997 12.3337C6.99997 6.44262 11.807 1.66699 17.7368 1.66699C23.6666 1.66699 28.4737 6.44262 28.4737 12.3337C28.4737 13.6644 28.2284 14.9383 27.7802 16.113C27.6872 16.357 27.6406 16.479 27.6195 16.5742C27.5985 16.6686 27.5905 16.735 27.5882 16.8316C27.5859 16.9291 27.5991 17.0366 27.6256 17.2514L28.1624 21.6117C28.2205 22.0837 28.2495 22.3197 28.171 22.4913C28.1022 22.6416 27.98 22.761 27.8281 22.8263C27.6548 22.9009 27.4195 22.8664 26.949 22.7974L22.702 22.1749C22.4802 22.1424 22.3693 22.1261 22.2683 22.1267C22.1684 22.1273 22.0993 22.1346 22.0016 22.1552C21.9027 22.176 21.7765 22.2232 21.524 22.3178C20.3463 22.759 19.0699 23.0003 17.7368 23.0003C17.1792 23.0003 16.6316 22.9581 16.0969 22.8767M9.17546 28.3337C13.1287 28.3337 16.3334 25.0504 16.3334 21.0003C16.3334 16.9502 13.1287 13.667 9.17546 13.667C5.22226 13.667 2.01756 16.9502 2.01756 21.0003C2.01756 21.8144 2.14705 22.5976 2.38609 23.3293C2.48713 23.6386 2.53765 23.7933 2.55423 23.8989C2.57154 24.0092 2.57457 24.0712 2.56813 24.1826C2.56195 24.2894 2.53524 24.4101 2.48181 24.6514L1.66669 28.3337L5.65976 27.7883C5.87771 27.7586 5.98668 27.7437 6.08185 27.7443C6.18205 27.745 6.23523 27.7504 6.3335 27.77C6.42683 27.7886 6.56557 27.8376 6.84305 27.9355C7.57414 28.1936 8.35883 28.3337 9.17546 28.3337Z" stroke="white" stroke-width="1.5" stroke-linecap="round" stroke-linejoin="round"/>
</svg>
