<svg width="56" height="56" viewBox="0 0 56 56" fill="none" xmlns="http://www.w3.org/2000/svg">
<g clip-path="url(#clip0_519_422)">
<rect y="0.000183105" width="56" height="56" rx="12" fill="#2468FF"/>
<path d="M20.1257 26.9719C20.0428 26.4378 19.9998 25.8906 19.9998 25.3335C19.9998 19.4425 24.8068 14.6668 30.7366 14.6668C36.6664 14.6668 41.4735 19.4425 41.4735 25.3335C41.4735 26.6643 41.2282 27.9381 40.78 29.1128C40.687 29.3568 40.6404 29.4788 40.6193 29.5741C40.5984 29.6684 40.5903 29.7348 40.588 29.8314C40.5857 29.929 40.5989 30.0364 40.6254 30.2513L41.1622 34.6115C41.2203 35.0836 41.2493 35.3196 41.1708 35.4911C41.102 35.6415 40.9798 35.7609 40.828 35.8262C40.6546 35.9007 40.4193 35.8662 39.9488 35.7973L35.7018 35.1747C35.48 35.1422 35.3691 35.126 35.2682 35.1265C35.1683 35.1271 35.0991 35.1345 35.0014 35.155C34.9026 35.1758 34.7763 35.2231 34.5238 35.3177C33.3461 35.7588 32.0697 36.0002 30.7366 36.0002C30.179 36.0002 29.6314 35.9579 29.0967 35.8765M22.1753 41.3335C26.1285 41.3335 29.3332 38.0503 29.3332 34.0002C29.3332 29.9501 26.1285 26.6668 22.1753 26.6668C18.2221 26.6668 15.0174 29.9501 15.0174 34.0002C15.0174 34.8143 15.1469 35.5974 15.3859 36.3291C15.4869 36.6385 15.5375 36.7931 15.554 36.8988C15.5714 37.0091 15.5744 37.071 15.5679 37.1825C15.5618 37.2892 15.5351 37.4099 15.4816 37.6513L14.6665 41.3335L18.6596 40.7882C18.8775 40.7584 18.9865 40.7435 19.0817 40.7442C19.1819 40.7448 19.235 40.7503 19.3333 40.7699C19.4266 40.7885 19.5654 40.8374 19.8429 40.9354C20.574 41.1934 21.3586 41.3335 22.1753 41.3335Z" stroke="white" stroke-width="1.5" stroke-linecap="round" stroke-linejoin="round"/>
</g>
<defs>
<clipPath id="clip0_519_422">
<rect y="0.000183105" width="56" height="56" rx="12" fill="white"/>
</clipPath>
</defs>
</svg>
