<svg width="21" height="21" viewBox="0 0 21 21" fill="none" xmlns="http://www.w3.org/2000/svg">
<path d="M10.4998 14.9587H10.5082M7.33317 18.7087H13.6665C14.5999 18.7087 15.0666 18.7087 15.4232 18.527C15.7368 18.3672 15.9917 18.1122 16.1515 17.7986C16.3332 17.4421 16.3332 16.9754 16.3332 16.042V4.70866C16.3332 3.77524 16.3332 3.30853 16.1515 2.95201C15.9917 2.6384 15.7368 2.38344 15.4232 2.22365C15.0666 2.04199 14.5999 2.04199 13.6665 2.04199H7.33317C6.39975 2.04199 5.93304 2.04199 5.57652 2.22365C5.26292 2.38344 5.00795 2.6384 4.84816 2.95201C4.6665 3.30853 4.6665 3.77524 4.6665 4.70866V16.042C4.6665 16.9754 4.6665 17.4421 4.84816 17.7986C5.00795 18.1122 5.26292 18.3672 5.57652 18.527C5.93304 18.7087 6.39975 18.7087 7.33317 18.7087ZM10.9165 14.9587C10.9165 15.1888 10.73 15.3753 10.4998 15.3753C10.2697 15.3753 10.0832 15.1888 10.0832 14.9587C10.0832 14.7285 10.2697 14.542 10.4998 14.542C10.73 14.542 10.9165 14.7285 10.9165 14.9587Z" stroke="white" stroke-width="1.5" stroke-linecap="round" stroke-linejoin="round"/>
</svg>
