<svg width="32" height="32" viewBox="0 0 32 32" fill="none" xmlns="http://www.w3.org/2000/svg">
<path d="M17.3329 14.6667L4.66619 27.3334M18.6907 4.71802C20.3148 5.79562 21.8757 7.06606 23.3344 8.52471C24.8056 9.99595 26.0854 11.5713 27.1689 13.2104M12.3395 10.5282L8.50631 9.25053C8.06487 9.10338 7.57864 9.19702 7.22342 9.49759L3.41387 12.7211C2.63397 13.381 2.85554 14.6368 3.81419 14.99L7.42378 16.3199M15.5742 24.4701L16.9041 28.0797C17.2573 29.0383 18.5132 29.2599 19.1731 28.48L22.3965 24.6705C22.6971 24.3152 22.7907 23.829 22.6436 23.3876L21.3659 19.5544M25.7976 3.0277L19.2557 4.11802C18.5493 4.23576 17.9013 4.58297 17.4121 5.10595L8.59467 14.5315C6.30913 16.9746 6.3727 20.7901 8.73837 23.1557C11.104 25.5214 14.9195 25.585 17.3626 23.2994L26.7882 14.482C27.3111 13.9928 27.6583 13.3448 27.7761 12.6384L28.8664 6.09648C29.1672 4.29162 27.6025 2.72689 25.7976 3.0277Z" stroke="white" stroke-width="1.5" stroke-linecap="round" stroke-linejoin="round"/>
</svg>
