<svg width="32" height="33" viewBox="0 0 32 33" fill="none" xmlns="http://www.w3.org/2000/svg">
<path d="M13.9995 18.5001L27.9995 4.50011M14.1696 18.9375L17.6738 27.9482C17.9825 28.742 18.1368 29.1389 18.3592 29.2548C18.552 29.3552 18.7817 29.3554 18.9746 29.2551C19.1972 29.1395 19.352 28.7428 19.6616 27.9494L28.4487 5.43237C28.7282 4.71613 28.868 4.35801 28.7915 4.12917C28.7251 3.93044 28.5692 3.77448 28.3705 3.70809C28.1416 3.63165 27.7835 3.7714 27.0673 4.05091L4.55027 12.838C3.75683 13.1477 3.36012 13.3025 3.24451 13.525C3.14428 13.7179 3.14442 13.9476 3.24487 14.1404C3.36074 14.3628 3.75764 14.5172 4.55143 14.8259L13.5621 18.33C13.7232 18.3927 13.8038 18.424 13.8716 18.4724C13.9318 18.5153 13.9844 18.5679 14.0272 18.628C14.0756 18.6958 14.107 18.7764 14.1696 18.9375Z" stroke="white" stroke-width="1.5" stroke-linecap="round" stroke-linejoin="round"/>
</svg>
