<svg width="33" height="32" viewBox="0 0 33 32" fill="none" xmlns="http://www.w3.org/2000/svg">
<path d="M25.167 10.6667V4.00008M7.83366 28.0001V21.3334M21.8337 7.33341H28.5003M4.50033 24.6667H11.167M9.16699 2.66675L8.12105 4.75864C7.76706 5.46661 7.59007 5.82059 7.35362 6.12734C7.1438 6.39954 6.89978 6.64356 6.62759 6.85337C6.32084 7.08983 5.96685 7.26682 5.25888 7.6208L3.16699 8.66675L5.25888 9.71269C5.96685 10.0667 6.32084 10.2437 6.62759 10.4801C6.89978 10.6899 7.1438 10.934 7.35362 11.2062C7.59007 11.5129 7.76706 11.8669 8.12105 12.5749L9.16699 14.6667L10.2129 12.5749C10.5669 11.8669 10.7439 11.5129 10.9804 11.2062C11.1902 10.934 11.4342 10.6899 11.7064 10.4801C12.0131 10.2437 12.3671 10.0667 13.0751 9.71269L15.167 8.66675L13.0751 7.6208C12.3671 7.26682 12.0131 7.08983 11.7064 6.85337C11.4342 6.64356 11.1902 6.39954 10.9804 6.12734C10.7439 5.82059 10.5669 5.46661 10.2129 4.75864L9.16699 2.66675ZM23.167 16.0001L21.8988 18.5364C21.5448 19.2444 21.3678 19.5984 21.1314 19.9051C20.9216 20.1773 20.6776 20.4213 20.4054 20.6312C20.0986 20.8676 19.7446 21.0446 19.0367 21.3986L16.5003 22.6667L19.0367 23.9349C19.7446 24.2889 20.0986 24.4659 20.4054 24.7023C20.6776 24.9122 20.9216 25.1562 21.1314 25.4284C21.3678 25.7351 21.5448 26.0891 21.8988 26.7971L23.167 29.3334L24.4352 26.7971C24.7891 26.0891 24.9661 25.7351 25.2026 25.4284C25.4124 25.1562 25.6564 24.9122 25.9286 24.7023C26.2354 24.4659 26.5894 24.2889 27.2973 23.9349L29.8337 22.6667L27.2973 21.3986C26.5894 21.0446 26.2354 20.8676 25.9286 20.6312C25.6564 20.4213 25.4124 20.1773 25.2026 19.9051C24.9661 19.5984 24.7891 19.2444 24.4352 18.5364L23.167 16.0001Z" stroke="white" stroke-width="1.5" stroke-linecap="round" stroke-linejoin="round"/>
</svg>
