<svg width="1920" height="204" viewBox="0 0 1920 204" fill="none" xmlns="http://www.w3.org/2000/svg">
<path d="M936.819 156.411L732.901 117.669C632.887 98.6678 530.557 95.05 429.451 106.941L87 147.216H0L0.000478678 203.25H3809H5689V78.25L5668.62 76.1669C5533.62 62.3668 5397.22 76.1887 5267.73 116.791L5231.23 128.237C5074.17 177.483 4907.39 187.201 4745.68 156.526L4541.45 117.789C4441.73 98.8731 4339.71 95.2498 4238.9 107.043L3895.5 147.216H3770.14C3677.98 147.216 3586.27 134.477 3497.6 109.36L3248.6 38.8264C3089.68 -6.18962 2922.08 -11.1398 2760.78 24.4181L2474.48 87.5319C2371.15 110.311 2264.86 116.546 2159.57 106.003L1858.31 75.8387C1724.32 62.422 1589 76.2071 1460.46 116.367L1421.69 128.48C1264.82 177.493 1098.28 187.087 936.819 156.411Z" fill="#1A4CD8"/>
</svg>
