<svg width="7409" height="297" viewBox="0 0 7409 297" fill="none" xmlns="http://www.w3.org/2000/svg">
<path opacity="0.6" d="M3698.92 95.5994L2801.35 261.629C2720.74 276.539 2638.61 281.481 2556.8 276.345L1962 239C1863.26 239 1765.12 223.716 1671.06 193.692L1213.12 47.5191C1049.79 -4.61704 875.79 -13.8823 707.843 20.6132L0 166V297H1880H7409V238.365C7364.59 238.365 7320.44 231.502 7278.12 218.018L6742.27 47.2747C6579.15 -4.70371 6405.41 -13.93 6237.69 20.4795L5453.25 181.422C5355.62 201.452 5255.54 206.775 5156.34 197.215L3976.74 83.5302C3884.02 74.5945 3790.51 78.6568 3698.92 95.5994Z" fill="#1A4CD8"/>
</svg>
